<svg id="svg" version="1.1" xmlns="http://www.w3.org/2000/svg" xmlns:xlink="http://www.w3.org/1999/xlink" width="400" height="405.42005420054204" viewBox="0, 0, 400,405.42005420054204"><g id="svgg"><path id="path0" d="M184.000 22.800 C 184.000 23.035,182.600 23.200,180.600 23.200 C 177.844 23.200,177.200 23.314,177.200 23.800 C 177.200 24.261,176.689 24.400,175.000 24.400 C 173.311 24.400,172.800 24.539,172.800 25.000 C 172.800 25.433,172.356 25.600,171.200 25.600 C 170.044 25.600,169.600 25.767,169.600 26.200 C 169.600 26.633,169.156 26.800,168.000 26.800 C 167.120 26.800,166.400 26.980,166.400 27.200 C 166.400 27.420,165.950 27.600,165.400 27.600 C 164.778 27.600,164.400 27.827,164.400 28.200 C 164.400 28.600,164.000 28.800,163.200 28.800 C 162.400 28.800,162.000 29.000,162.000 29.400 C 162.000 29.773,161.622 30.000,161.000 30.000 C 160.450 30.000,160.000 30.180,160.000 30.400 C 160.000 30.620,159.590 30.800,159.089 30.800 C 158.196 30.800,156.800 32.023,156.800 32.805 C 156.800 33.022,156.337 33.200,155.771 33.200 C 154.717 33.200,153.600 34.008,153.600 34.771 C 153.600 35.007,153.060 35.200,152.400 35.200 C 151.600 35.200,151.200 35.400,151.200 35.800 C 151.200 36.130,151.020 36.400,150.800 36.400 C 150.580 36.400,150.400 36.670,150.400 37.000 C 150.400 37.330,150.130 37.600,149.800 37.600 C 149.470 37.600,149.200 37.780,149.200 38.000 C 149.200 38.220,148.660 38.400,148.000 38.400 C 147.200 38.400,146.800 38.600,146.800 39.000 C 146.800 39.330,146.620 39.600,146.400 39.600 C 146.180 39.600,146.000 39.870,146.000 40.200 C 146.000 40.530,145.730 40.800,145.400 40.800 C 145.070 40.800,144.800 40.980,144.800 41.200 C 144.800 41.420,144.530 41.600,144.200 41.600 C 143.870 41.600,143.600 41.870,143.600 42.200 C 143.600 42.573,143.222 42.800,142.600 42.800 C 141.978 42.800,141.600 43.027,141.600 43.400 C 141.600 43.730,141.330 44.000,141.000 44.000 C 140.670 44.000,140.400 44.270,140.400 44.600 C 140.400 44.930,140.130 45.200,139.800 45.200 C 139.470 45.200,139.200 45.380,139.200 45.600 C 139.200 45.820,138.750 46.000,138.200 46.000 C 137.578 46.000,137.200 46.227,137.200 46.600 C 137.200 46.930,136.930 47.200,136.600 47.200 C 136.270 47.200,136.000 47.393,136.000 47.629 C 136.000 48.392,134.883 49.200,133.829 49.200 C 133.181 49.200,132.800 49.422,132.800 49.800 C 132.800 50.130,132.530 50.400,132.200 50.400 C 131.870 50.400,131.600 50.670,131.600 51.000 C 131.600 51.330,131.420 51.600,131.200 51.600 C 130.980 51.600,130.800 51.870,130.800 52.200 C 130.800 52.600,130.400 52.800,129.600 52.800 C 128.940 52.800,128.400 52.980,128.400 53.200 C 128.400 53.420,127.680 53.600,126.800 53.600 C 125.644 53.600,125.200 53.767,125.200 54.200 C 125.200 54.697,124.444 54.800,120.800 54.800 C 117.156 54.800,116.400 54.903,116.400 55.400 C 116.400 55.916,115.111 56.000,107.200 56.000 C 101.333 56.000,98.000 56.145,98.000 56.400 C 98.000 56.651,95.400 56.800,91.000 56.800 C 85.044 56.800,84.000 56.890,84.000 57.400 C 84.000 57.861,83.489 58.000,81.800 58.000 C 80.111 58.000,79.600 58.139,79.600 58.600 C 79.600 59.033,79.156 59.200,78.000 59.200 C 77.120 59.200,76.400 59.380,76.400 59.600 C 76.400 59.820,75.950 60.000,75.400 60.000 C 74.778 60.000,74.400 60.227,74.400 60.600 C 74.400 61.033,73.956 61.200,72.800 61.200 C 71.644 61.200,71.200 61.367,71.200 61.800 C 71.200 62.200,70.800 62.400,70.000 62.400 C 69.340 62.400,68.800 62.593,68.800 62.829 C 68.800 63.592,67.683 64.400,66.629 64.400 C 65.981 64.400,65.600 64.622,65.600 65.000 C 65.600 65.373,65.222 65.600,64.600 65.600 C 63.978 65.600,63.600 65.827,63.600 66.200 C 63.600 66.530,63.330 66.800,63.000 66.800 C 62.670 66.800,62.400 66.980,62.400 67.200 C 62.400 67.420,62.130 67.600,61.800 67.600 C 61.470 67.600,61.200 67.870,61.200 68.200 C 61.200 68.573,60.822 68.800,60.200 68.800 C 59.578 68.800,59.200 69.027,59.200 69.400 C 59.200 69.730,58.930 70.000,58.600 70.000 C 58.270 70.000,58.000 70.270,58.000 70.600 C 58.000 70.930,57.807 71.200,57.571 71.200 C 57.018 71.200,56.000 72.218,56.000 72.771 C 56.000 73.007,55.730 73.200,55.400 73.200 C 55.070 73.200,54.800 73.470,54.800 73.800 C 54.800 74.130,54.530 74.400,54.200 74.400 C 53.827 74.400,53.600 74.778,53.600 75.400 C 53.600 75.950,53.420 76.400,53.200 76.400 C 52.980 76.400,52.800 76.670,52.800 77.000 C 52.800 77.330,52.530 77.600,52.200 77.600 C 51.870 77.600,51.600 77.870,51.600 78.200 C 51.600 78.530,51.330 78.800,51.000 78.800 C 50.627 78.800,50.400 79.178,50.400 79.800 C 50.400 80.422,50.173 80.800,49.800 80.800 C 49.470 80.800,49.200 81.070,49.200 81.400 C 49.200 81.730,49.020 82.000,48.800 82.000 C 48.580 82.000,48.400 82.450,48.400 83.000 C 48.400 83.622,48.173 84.000,47.800 84.000 C 47.434 84.000,47.200 84.373,47.200 84.957 C 47.200 85.484,46.930 86.018,46.600 86.145 C 46.270 86.271,46.000 86.831,46.000 87.387 C 46.000 87.944,45.820 88.400,45.600 88.400 C 45.380 88.400,45.200 89.120,45.200 90.000 C 45.200 91.156,45.033 91.600,44.600 91.600 C 44.139 91.600,44.000 92.111,44.000 93.800 C 44.000 95.489,43.861 96.000,43.400 96.000 C 42.917 96.000,42.800 96.622,42.800 99.200 C 42.800 101.067,42.633 102.400,42.400 102.400 C 42.146 102.400,42.000 105.533,42.000 111.000 C 42.000 116.467,42.146 119.600,42.400 119.600 C 42.635 119.600,42.800 121.000,42.800 123.000 C 42.800 125.756,42.914 126.400,43.400 126.400 C 43.833 126.400,44.000 126.844,44.000 128.000 C 44.000 129.156,44.167 129.600,44.600 129.600 C 45.033 129.600,45.200 130.044,45.200 131.200 C 45.200 132.080,45.380 132.800,45.600 132.800 C 45.820 132.800,46.000 133.520,46.000 134.400 C 46.000 135.556,46.167 136.000,46.600 136.000 C 46.973 136.000,47.200 136.378,47.200 137.000 C 47.200 137.622,47.427 138.000,47.800 138.000 C 48.233 138.000,48.400 138.444,48.400 139.600 C 48.400 140.480,48.580 141.200,48.800 141.200 C 49.020 141.200,49.200 141.470,49.200 141.800 C 49.200 142.130,49.470 142.400,49.800 142.400 C 50.200 142.400,50.400 142.800,50.400 143.600 C 50.400 144.400,50.600 144.800,51.000 144.800 C 51.373 144.800,51.600 145.178,51.600 145.800 C 51.600 146.422,51.827 146.800,52.200 146.800 C 52.573 146.800,52.800 147.178,52.800 147.800 C 52.800 148.350,52.980 148.800,53.200 148.800 C 53.420 148.800,53.600 149.070,53.600 149.400 C 53.600 149.730,53.870 150.000,54.200 150.000 C 54.600 150.000,54.800 150.400,54.800 151.200 C 54.800 151.860,54.993 152.400,55.229 152.400 C 55.992 152.400,56.800 153.517,56.800 154.571 C 56.800 155.219,57.022 155.600,57.400 155.600 C 57.730 155.600,58.000 155.780,58.000 156.000 C 58.000 156.220,58.270 156.400,58.600 156.400 C 58.930 156.400,59.200 156.670,59.200 157.000 C 59.200 157.330,59.470 157.600,59.800 157.600 C 60.130 157.600,60.400 157.870,60.400 158.200 C 60.400 158.530,60.580 158.800,60.800 158.800 C 61.020 158.800,61.200 159.070,61.200 159.400 C 61.200 159.730,61.470 160.000,61.800 160.000 C 62.130 160.000,62.400 160.180,62.400 160.400 C 62.400 160.620,62.670 160.800,63.000 160.800 C 63.330 160.800,63.600 160.994,63.600 161.231 C 63.600 161.468,64.126 162.188,64.769 162.831 C 65.412 163.474,66.132 164.000,66.369 164.000 C 66.606 164.000,66.800 164.270,66.800 164.600 C 66.800 164.930,67.070 165.200,67.400 165.200 C 67.730 165.200,68.000 165.393,68.000 165.629 C 68.000 165.864,68.257 166.314,68.571 166.629 C 68.886 166.943,69.336 167.200,69.571 167.200 C 69.807 167.200,70.000 167.493,70.000 167.850 C 70.000 168.353,70.261 168.448,71.149 168.270 C 72.035 168.093,72.509 168.265,73.219 169.020 C 73.725 169.559,74.474 170.000,74.882 170.000 C 75.291 170.000,75.729 170.270,75.855 170.600 C 75.982 170.930,76.408 171.200,76.803 171.200 C 78.678 171.200,80.419 173.922,80.676 177.257 C 80.850 179.511,81.071 180.400,81.459 180.400 C 81.862 180.400,82.000 181.114,82.000 183.200 C 82.000 184.800,82.171 186.000,82.400 186.000 C 82.633 186.000,82.800 187.333,82.800 189.200 C 82.800 191.778,82.917 192.400,83.400 192.400 C 83.891 192.400,84.000 193.089,84.000 196.200 C 84.000 199.311,84.109 200.000,84.600 200.000 C 85.083 200.000,85.200 200.622,85.200 203.200 C 85.200 205.778,85.317 206.400,85.800 206.400 C 86.297 206.400,86.400 207.156,86.400 210.800 C 86.400 213.467,86.558 215.200,86.800 215.200 C 87.041 215.200,87.200 216.867,87.200 219.400 C 87.200 222.867,87.305 223.600,87.800 223.600 C 88.301 223.600,88.400 224.422,88.400 228.600 C 88.400 232.778,88.499 233.600,89.000 233.600 C 89.506 233.600,89.600 234.511,89.600 239.400 C 89.600 243.000,89.752 245.200,90.000 245.200 C 90.252 245.200,90.400 247.867,90.400 252.400 C 90.400 258.533,90.489 259.600,91.000 259.600 C 91.512 259.600,91.600 260.711,91.600 267.200 C 91.600 273.689,91.688 274.800,92.200 274.800 C 92.719 274.800,92.800 276.267,92.800 285.600 C 92.800 294.933,92.881 296.400,93.400 296.400 C 93.923 296.400,94.000 298.400,94.000 312.000 C 94.000 322.133,94.140 327.600,94.400 327.600 C 94.657 327.600,94.800 331.667,94.800 339.000 C 94.800 348.867,94.881 350.400,95.400 350.400 C 95.901 350.400,96.000 351.222,96.000 355.400 C 96.000 359.578,96.099 360.400,96.600 360.400 C 97.021 360.400,97.200 360.825,97.200 361.829 C 97.200 363.226,97.917 364.400,98.771 364.400 C 99.007 364.400,99.200 364.940,99.200 365.600 C 99.200 366.667,99.333 366.800,100.400 366.800 C 101.060 366.800,101.600 366.993,101.600 367.229 C 101.600 368.238,102.763 368.815,104.299 368.570 C 105.444 368.387,105.974 368.487,106.368 368.962 C 106.704 369.366,107.532 369.600,108.625 369.600 C 109.575 369.600,110.464 369.780,110.600 370.000 C 110.736 370.220,111.922 370.400,113.236 370.400 C 114.991 370.400,115.686 370.559,115.855 371.000 C 116.033 371.462,116.801 371.600,119.200 371.600 C 121.599 371.600,122.367 371.738,122.545 372.200 C 122.729 372.681,123.612 372.800,126.987 372.800 C 129.529 372.800,131.200 372.959,131.200 373.200 C 131.200 373.440,132.790 373.600,135.171 373.600 C 138.168 373.600,139.290 373.747,139.743 374.200 C 140.213 374.670,141.436 374.800,145.384 374.800 C 149.496 374.800,150.468 374.911,150.655 375.400 C 150.847 375.900,152.000 376.000,157.594 376.000 C 163.069 376.000,164.394 376.110,164.800 376.600 C 165.232 377.120,168.308 377.200,188.000 377.200 C 207.692 377.200,210.768 377.120,211.200 376.600 C 211.610 376.106,213.004 376.000,219.062 376.000 C 225.238 376.000,226.462 375.903,226.655 375.400 C 226.845 374.906,227.875 374.800,232.471 374.800 C 236.903 374.800,238.181 374.676,238.657 374.200 C 239.117 373.740,240.274 373.600,243.605 373.600 C 246.072 373.600,248.060 373.427,248.200 373.200 C 248.338 372.977,250.188 372.800,252.375 372.800 C 255.378 372.800,256.419 372.659,256.800 372.200 C 257.159 371.768,258.108 371.600,260.200 371.600 C 262.292 371.600,263.241 371.432,263.600 371.000 C 263.902 370.636,264.778 370.400,265.825 370.400 C 266.775 370.400,267.664 370.220,267.800 370.000 C 267.936 369.780,268.825 369.600,269.775 369.600 C 270.822 369.600,271.698 369.364,272.000 369.000 C 272.274 368.670,272.814 368.400,273.200 368.400 C 273.586 368.400,274.126 368.130,274.400 367.800 C 274.674 367.470,275.132 367.200,275.419 367.200 C 276.544 367.200,280.800 362.517,280.800 361.278 C 280.800 360.629,281.070 359.874,281.400 359.600 C 281.730 359.326,282.000 358.494,282.000 357.751 C 282.000 357.008,282.180 356.400,282.400 356.400 C 282.657 356.400,282.800 352.283,282.800 344.849 C 282.800 335.069,282.892 333.222,283.400 332.800 C 283.916 332.372,284.000 329.936,284.000 315.400 C 284.000 300.864,284.084 298.428,284.600 298.000 C 285.098 297.587,285.200 296.089,285.200 289.175 C 285.200 284.054,285.354 280.752,285.600 280.600 C 285.842 280.450,286.000 277.546,286.000 273.225 C 286.000 267.378,286.108 266.009,286.600 265.600 C 287.090 265.194,287.200 263.869,287.200 258.394 C 287.200 252.800,287.300 251.647,287.800 251.455 C 288.295 251.265,288.400 250.215,288.400 245.455 C 288.400 240.696,288.505 239.645,289.000 239.455 C 289.491 239.267,289.600 238.280,289.600 234.036 C 289.600 231.008,289.767 228.744,290.000 228.600 C 290.229 228.458,290.400 226.392,290.400 223.764 C 290.400 220.054,290.515 219.131,291.000 218.945 C 291.480 218.760,291.600 217.882,291.600 214.545 C 291.600 211.207,291.720 210.329,292.200 210.145 C 292.671 209.964,292.800 209.153,292.800 206.381 C 292.800 204.437,292.980 202.736,293.200 202.600 C 293.420 202.464,293.600 200.855,293.600 199.025 C 293.600 196.556,293.755 195.570,294.200 195.200 C 294.632 194.841,294.800 193.892,294.800 191.800 C 294.800 189.708,294.968 188.759,295.400 188.400 C 295.825 188.047,296.000 187.114,296.000 185.200 C 296.000 183.286,296.175 182.353,296.600 182.000 C 296.964 181.698,297.200 180.822,297.200 179.775 C 297.200 178.825,297.380 177.936,297.600 177.800 C 297.820 177.664,298.000 177.003,298.000 176.331 C 298.000 175.006,302.485 170.000,303.672 170.000 C 303.996 170.000,304.683 169.550,305.200 169.000 C 305.717 168.450,306.423 167.994,306.770 167.987 C 307.116 167.980,308.115 167.260,308.989 166.387 C 309.863 165.514,310.803 164.800,311.078 164.800 C 311.753 164.800,318.800 157.719,318.800 157.041 C 318.800 156.745,319.520 155.805,320.400 154.952 C 321.279 154.098,321.999 153.116,322.000 152.770 C 322.000 152.423,322.450 151.717,323.000 151.200 C 323.550 150.683,324.000 149.968,324.000 149.612 C 324.000 149.255,324.532 148.521,325.183 147.981 C 325.834 147.442,326.374 146.595,326.383 146.100 C 326.392 145.605,326.580 145.200,326.800 145.200 C 327.020 145.200,327.200 144.862,327.200 144.449 C 327.200 144.036,327.470 143.474,327.800 143.200 C 328.130 142.926,328.400 142.358,328.400 141.938 C 328.400 141.519,328.670 141.071,329.000 140.945 C 329.330 140.818,329.600 140.303,329.600 139.800 C 329.600 139.297,329.870 138.782,330.200 138.655 C 330.530 138.529,330.800 138.070,330.800 137.636 C 330.800 137.202,330.980 136.736,331.200 136.600 C 331.420 136.464,331.600 135.728,331.600 134.964 C 331.600 134.098,331.826 133.488,332.200 133.345 C 332.564 133.205,332.800 132.600,332.800 131.806 C 332.800 131.087,333.070 130.274,333.400 130.000 C 333.730 129.726,334.000 128.894,334.000 128.151 C 334.000 127.408,334.180 126.800,334.400 126.800 C 334.621 126.800,334.800 125.750,334.800 124.449 C 334.800 122.847,334.991 121.939,335.400 121.600 C 335.902 121.183,336.000 119.572,336.000 111.722 C 336.000 103.918,335.899 102.242,335.400 101.743 C 334.983 101.326,334.800 100.304,334.800 98.395 C 334.800 96.884,334.620 95.536,334.400 95.400 C 334.180 95.264,334.000 94.528,334.000 93.764 C 334.000 92.898,333.774 92.288,333.400 92.145 C 333.036 92.005,332.800 91.400,332.800 90.606 C 332.800 89.887,332.530 89.074,332.200 88.800 C 331.870 88.526,331.600 87.760,331.600 87.097 C 331.600 86.325,331.240 85.558,330.600 84.965 C 330.050 84.455,329.600 83.782,329.600 83.468 C 329.600 83.155,329.330 82.674,329.000 82.400 C 328.670 82.126,328.400 81.595,328.400 81.221 C 328.400 80.846,327.959 80.125,327.420 79.619 C 326.665 78.909,326.493 78.435,326.670 77.549 C 326.848 76.661,326.753 76.400,326.250 76.400 C 325.893 76.400,325.600 76.207,325.600 75.971 C 325.600 75.418,324.582 74.400,324.029 74.400 C 323.793 74.400,323.600 74.130,323.600 73.800 C 323.600 73.470,323.330 73.200,323.000 73.200 C 322.670 73.200,322.400 73.007,322.400 72.771 C 322.400 72.218,321.382 71.200,320.829 71.200 C 320.593 71.200,320.400 70.930,320.400 70.600 C 320.400 70.270,320.130 70.000,319.800 70.000 C 319.470 70.000,319.200 69.730,319.200 69.400 C 319.200 69.070,318.930 68.800,318.600 68.800 C 318.270 68.800,318.000 68.530,318.000 68.200 C 318.000 67.827,317.622 67.600,317.000 67.600 C 316.450 67.600,316.000 67.420,316.000 67.200 C 316.000 66.980,315.730 66.800,315.400 66.800 C 315.070 66.800,314.800 66.530,314.800 66.200 C 314.800 65.827,314.422 65.600,313.800 65.600 C 313.178 65.600,312.800 65.373,312.800 65.000 C 312.800 64.670,312.530 64.400,312.200 64.400 C 311.870 64.400,311.600 64.220,311.600 64.000 C 311.600 63.780,311.150 63.600,310.600 63.600 C 309.978 63.600,309.600 63.373,309.600 63.000 C 309.600 62.600,309.200 62.400,308.400 62.400 C 307.600 62.400,307.200 62.200,307.200 61.800 C 307.200 61.427,306.822 61.200,306.200 61.200 C 305.578 61.200,305.200 60.973,305.200 60.600 C 305.200 60.200,304.800 60.000,304.000 60.000 C 303.340 60.000,302.800 59.820,302.800 59.600 C 302.800 59.380,302.080 59.200,301.200 59.200 C 300.044 59.200,299.600 59.033,299.600 58.600 C 299.600 58.139,299.089 58.000,297.400 58.000 C 295.711 58.000,295.200 57.861,295.200 57.400 C 295.200 56.887,294.044 56.800,287.200 56.800 C 282.133 56.800,279.200 56.653,279.200 56.400 C 279.200 56.144,275.667 56.000,269.400 56.000 C 263.133 56.000,259.600 56.144,259.600 56.400 C 259.600 56.639,258.067 56.800,255.800 56.800 C 253.533 56.800,252.000 56.639,252.000 56.400 C 252.000 56.180,251.730 56.000,251.400 56.000 C 251.070 56.000,250.800 55.863,250.800 55.695 C 250.800 55.527,250.395 55.212,249.900 54.995 C 249.405 54.778,248.822 54.195,248.605 53.700 C 248.388 53.205,248.073 52.800,247.905 52.800 C 247.737 52.800,247.600 52.530,247.600 52.200 C 247.600 51.870,247.420 51.600,247.200 51.600 C 246.980 51.600,246.800 51.330,246.800 51.000 C 246.800 50.670,246.530 50.400,246.200 50.400 C 245.827 50.400,245.600 50.022,245.600 49.400 C 245.600 48.778,245.373 48.400,245.000 48.400 C 244.670 48.400,244.400 48.130,244.400 47.800 C 244.400 47.427,244.022 47.200,243.400 47.200 C 242.778 47.200,242.400 46.973,242.400 46.600 C 242.400 46.270,242.130 46.000,241.800 46.000 C 241.470 46.000,241.200 45.820,241.200 45.600 C 241.200 45.380,240.930 45.200,240.600 45.200 C 240.270 45.200,240.000 44.930,240.000 44.600 C 240.000 44.270,239.820 44.000,239.600 44.000 C 239.380 44.000,239.200 43.730,239.200 43.400 C 239.200 43.070,238.930 42.800,238.600 42.800 C 238.270 42.800,238.000 42.530,238.000 42.200 C 238.000 41.870,237.730 41.600,237.400 41.600 C 237.070 41.600,236.800 41.420,236.800 41.200 C 236.800 40.980,236.530 40.800,236.200 40.800 C 235.870 40.800,235.600 40.530,235.600 40.200 C 235.600 39.827,235.222 39.600,234.600 39.600 C 233.978 39.600,233.600 39.373,233.600 39.000 C 233.600 38.670,233.330 38.400,233.000 38.400 C 232.670 38.400,232.400 38.220,232.400 38.000 C 232.400 37.780,231.950 37.600,231.400 37.600 C 230.778 37.600,230.400 37.373,230.400 37.000 C 230.400 36.670,230.130 36.400,229.800 36.400 C 229.470 36.400,229.200 36.130,229.200 35.800 C 229.200 35.427,228.822 35.200,228.200 35.200 C 227.578 35.200,227.200 34.973,227.200 34.600 C 227.200 34.222,226.819 34.000,226.171 34.000 C 225.117 34.000,224.000 33.192,224.000 32.429 C 224.000 32.193,223.460 32.000,222.800 32.000 C 222.000 32.000,221.600 31.800,221.600 31.400 C 221.600 31.027,221.222 30.800,220.600 30.800 C 220.050 30.800,219.600 30.620,219.600 30.400 C 219.600 30.180,218.880 30.000,218.000 30.000 C 216.844 30.000,216.400 29.833,216.400 29.400 C 216.400 29.000,216.000 28.800,215.200 28.800 C 214.400 28.800,214.000 28.600,214.000 28.200 C 214.000 27.767,213.556 27.600,212.400 27.600 C 211.520 27.600,210.800 27.420,210.800 27.200 C 210.800 26.980,210.080 26.800,209.200 26.800 C 208.044 26.800,207.600 26.633,207.600 26.200 C 207.600 25.767,207.156 25.600,206.000 25.600 C 204.844 25.600,204.400 25.433,204.400 25.000 C 204.400 24.539,203.889 24.400,202.200 24.400 C 200.511 24.400,200.000 24.261,200.000 23.800 C 200.000 23.317,199.378 23.200,196.800 23.200 C 194.933 23.200,193.600 23.033,193.600 22.800 C 193.600 22.556,191.733 22.400,188.800 22.400 C 185.867 22.400,184.000 22.556,184.000 22.800 M199.400 46.000 C 199.536 46.220,200.425 46.400,201.375 46.400 C 202.422 46.400,203.298 46.636,203.600 47.000 C 203.874 47.330,204.712 47.600,205.462 47.600 C 206.305 47.600,206.913 47.829,207.055 48.200 C 207.182 48.530,207.697 48.800,208.200 48.800 C 208.703 48.800,209.218 49.070,209.345 49.400 C 209.471 49.730,209.930 50.000,210.364 50.000 C 210.798 50.000,211.264 50.180,211.400 50.400 C 211.536 50.620,212.002 50.800,212.436 50.800 C 212.870 50.800,213.329 51.070,213.455 51.400 C 213.582 51.730,214.035 52.000,214.462 52.000 C 214.889 52.000,215.655 52.450,216.165 53.000 C 216.675 53.550,217.336 54.000,217.635 54.000 C 218.327 54.000,223.200 58.806,223.200 59.488 C 223.200 59.770,223.380 60.000,223.600 60.000 C 223.820 60.000,224.000 60.270,224.000 60.600 C 224.000 60.930,224.270 61.200,224.600 61.200 C 224.930 61.200,225.200 61.393,225.200 61.629 C 225.200 62.182,226.218 63.200,226.771 63.200 C 227.007 63.200,227.200 63.470,227.200 63.800 C 227.200 64.130,227.470 64.400,227.800 64.400 C 228.130 64.400,228.400 64.594,228.400 64.831 C 228.400 65.391,230.609 67.600,231.169 67.600 C 231.406 67.600,231.600 68.063,231.600 68.629 C 231.600 69.683,232.408 70.800,233.171 70.800 C 233.407 70.800,233.600 71.070,233.600 71.400 C 233.600 71.730,233.870 72.000,234.200 72.000 C 234.600 72.000,234.800 72.400,234.800 73.200 C 234.800 74.000,235.000 74.400,235.400 74.400 C 235.773 74.400,236.000 74.778,236.000 75.400 C 236.000 75.950,236.180 76.400,236.400 76.400 C 236.620 76.400,236.800 76.850,236.800 77.400 C 236.800 78.022,237.027 78.400,237.400 78.400 C 237.730 78.400,238.000 78.670,238.000 79.000 C 238.000 79.330,238.270 79.600,238.600 79.600 C 238.973 79.600,239.200 79.978,239.200 80.600 C 239.200 81.150,239.380 81.600,239.600 81.600 C 239.820 81.600,240.000 82.140,240.000 82.800 C 240.000 83.600,240.200 84.000,240.600 84.000 C 240.973 84.000,241.200 84.378,241.200 85.000 C 241.200 85.622,241.427 86.000,241.800 86.000 C 242.130 86.000,242.400 86.289,242.400 86.642 C 242.400 87.475,249.419 87.051,250.431 86.157 C 250.779 85.851,251.369 85.600,251.744 85.600 C 252.119 85.600,252.529 85.330,252.655 85.000 C 252.796 84.633,253.403 84.400,254.219 84.400 C 254.953 84.400,255.664 84.220,255.800 84.000 C 255.936 83.780,256.375 83.600,256.775 83.600 C 257.175 83.600,257.726 83.330,258.000 83.000 C 258.274 82.670,258.817 82.400,259.206 82.400 C 259.596 82.400,260.018 82.130,260.145 81.800 C 260.271 81.470,260.719 81.200,261.138 81.200 C 261.558 81.200,262.126 80.930,262.400 80.600 C 262.674 80.270,263.225 80.000,263.625 80.000 C 264.025 80.000,264.464 79.820,264.600 79.600 C 264.736 79.380,265.175 79.200,265.575 79.200 C 265.975 79.200,266.526 78.930,266.800 78.600 C 267.074 78.270,267.794 78.000,268.400 78.000 C 269.006 78.000,269.726 77.730,270.000 77.400 C 270.274 77.070,271.106 76.800,271.849 76.800 C 272.592 76.800,273.200 76.620,273.200 76.400 C 273.200 76.180,273.808 76.000,274.551 76.000 C 275.294 76.000,276.126 75.730,276.400 75.400 C 276.789 74.932,277.886 74.800,281.400 74.800 C 284.914 74.800,286.011 74.932,286.400 75.400 C 286.674 75.730,287.405 76.000,288.025 76.000 C 288.645 76.000,289.264 76.180,289.400 76.400 C 289.536 76.620,290.272 76.800,291.036 76.800 C 291.902 76.800,292.512 77.026,292.655 77.400 C 292.782 77.730,293.195 78.000,293.573 78.000 C 293.951 78.000,294.683 78.450,295.200 79.000 C 295.717 79.550,296.431 80.000,296.786 80.000 C 297.142 80.000,298.228 80.810,299.200 81.800 C 300.172 82.790,301.232 83.600,301.557 83.600 C 302.412 83.600,306.718 88.134,307.026 89.360 C 307.169 89.932,307.537 90.400,307.843 90.400 C 308.150 90.400,308.400 90.670,308.400 91.000 C 308.400 91.330,308.670 91.600,309.000 91.600 C 309.373 91.600,309.600 91.978,309.600 92.600 C 309.600 93.222,309.827 93.600,310.200 93.600 C 310.530 93.600,310.800 93.870,310.800 94.200 C 310.800 94.530,310.980 94.800,311.200 94.800 C 311.420 94.800,311.600 95.070,311.600 95.400 C 311.600 95.730,311.870 96.000,312.200 96.000 C 312.573 96.000,312.800 96.378,312.800 97.000 C 312.800 97.622,313.027 98.000,313.400 98.000 C 313.730 98.000,314.000 98.270,314.000 98.600 C 314.000 98.930,314.180 99.200,314.400 99.200 C 314.620 99.200,314.800 99.650,314.800 100.200 C 314.800 100.822,315.027 101.200,315.400 101.200 C 315.833 101.200,316.000 101.644,316.000 102.800 C 316.000 103.956,316.167 104.400,316.600 104.400 C 317.044 104.400,317.200 104.867,317.200 106.200 C 317.200 107.533,317.356 108.000,317.800 108.000 C 318.304 108.000,318.400 108.867,318.400 113.400 C 318.400 117.933,318.304 118.800,317.800 118.800 C 317.339 118.800,317.200 119.311,317.200 121.000 C 317.200 122.689,317.061 123.200,316.600 123.200 C 316.167 123.200,316.000 123.644,316.000 124.800 C 316.000 125.956,315.833 126.400,315.400 126.400 C 315.027 126.400,314.800 126.778,314.800 127.400 C 314.800 127.950,314.620 128.400,314.400 128.400 C 314.180 128.400,314.000 128.940,314.000 129.600 C 314.000 130.400,313.800 130.800,313.400 130.800 C 313.027 130.800,312.800 131.178,312.800 131.800 C 312.800 132.422,312.573 132.800,312.200 132.800 C 311.870 132.800,311.600 133.070,311.600 133.400 C 311.600 133.730,311.420 134.000,311.200 134.000 C 310.980 134.000,310.800 134.450,310.800 135.000 C 310.800 135.622,310.573 136.000,310.200 136.000 C 309.870 136.000,309.600 136.270,309.600 136.600 C 309.600 136.930,309.330 137.200,309.000 137.200 C 308.670 137.200,308.400 137.470,308.400 137.800 C 308.400 138.130,308.207 138.400,307.971 138.400 C 307.418 138.400,306.400 139.418,306.400 139.971 C 306.400 140.207,306.130 140.400,305.800 140.400 C 305.427 140.400,305.200 140.778,305.200 141.400 C 305.200 142.200,305.000 142.400,304.200 142.400 C 303.578 142.400,303.200 142.627,303.200 143.000 C 303.200 143.330,302.930 143.600,302.600 143.600 C 302.270 143.600,302.000 143.870,302.000 144.200 C 302.000 144.530,301.806 144.800,301.569 144.800 C 301.009 144.800,298.800 147.009,298.800 147.569 C 298.800 147.806,298.530 148.000,298.200 148.000 C 297.870 148.000,297.600 148.270,297.600 148.600 C 297.600 148.973,297.222 149.200,296.600 149.200 C 296.050 149.200,295.600 149.380,295.600 149.600 C 295.600 149.820,295.330 150.000,295.000 150.000 C 294.670 150.000,294.400 150.270,294.400 150.600 C 294.400 150.973,294.022 151.200,293.400 151.200 C 292.778 151.200,292.400 151.427,292.400 151.800 C 292.400 152.130,292.130 152.400,291.800 152.400 C 291.470 152.400,291.200 152.580,291.200 152.800 C 291.200 153.020,290.744 153.200,290.187 153.200 C 289.631 153.200,289.071 153.470,288.945 153.800 C 288.818 154.130,288.284 154.400,287.757 154.400 C 287.173 154.400,286.800 154.634,286.800 155.000 C 286.800 155.330,286.530 155.600,286.200 155.600 C 285.870 155.600,285.600 155.870,285.600 156.200 C 285.600 156.573,285.222 156.800,284.600 156.800 C 284.050 156.800,283.600 156.980,283.600 157.200 C 283.600 157.420,283.330 157.600,283.000 157.600 C 282.670 157.600,282.400 157.870,282.400 158.200 C 282.400 158.573,282.022 158.800,281.400 158.800 C 280.778 158.800,280.400 159.027,280.400 159.400 C 280.400 159.730,280.130 160.000,279.800 160.000 C 279.470 160.000,279.200 160.180,279.200 160.400 C 279.200 160.620,278.930 160.800,278.600 160.800 C 278.124 160.800,278.000 161.378,278.000 163.600 C 278.000 165.200,277.829 166.400,277.600 166.400 C 277.361 166.400,277.200 167.933,277.200 170.200 C 277.200 173.311,277.091 174.000,276.600 174.000 C 276.103 174.000,276.000 174.756,276.000 178.400 C 276.000 182.044,275.897 182.800,275.400 182.800 C 274.905 182.800,274.800 183.533,274.800 187.000 C 274.800 190.467,274.695 191.200,274.200 191.200 C 273.703 191.200,273.600 191.956,273.600 195.600 C 273.600 198.267,273.442 200.000,273.200 200.000 C 272.956 200.000,272.800 201.867,272.800 204.800 C 272.800 208.800,272.700 209.600,272.200 209.600 C 271.699 209.600,271.600 210.422,271.600 214.600 C 271.600 218.778,271.501 219.600,271.000 219.600 C 270.500 219.600,270.400 220.400,270.400 224.400 C 270.400 227.333,270.244 229.200,270.000 229.200 C 269.753 229.200,269.600 231.267,269.600 234.600 C 269.600 239.133,269.504 240.000,269.000 240.000 C 268.500 240.000,268.400 240.800,268.400 244.800 C 268.400 248.800,268.300 249.600,267.800 249.600 C 267.299 249.600,267.200 250.422,267.200 254.600 C 267.200 258.778,267.101 259.600,266.600 259.600 C 266.109 259.600,266.000 260.289,266.000 263.400 C 266.000 265.667,265.839 267.200,265.600 267.200 C 265.361 267.200,265.200 268.733,265.200 271.000 C 265.200 274.111,265.091 274.800,264.600 274.800 C 264.129 274.800,264.000 275.351,264.000 277.357 C 264.000 279.261,263.847 279.973,263.400 280.145 C 262.977 280.307,262.800 280.968,262.800 282.387 C 262.800 283.494,262.620 284.400,262.400 284.400 C 262.180 284.400,262.000 284.940,262.000 285.600 C 262.000 286.400,261.800 286.800,261.400 286.800 C 261.027 286.800,260.800 287.178,260.800 287.800 C 260.800 288.700,260.640 288.800,259.200 288.800 C 258.044 288.800,257.600 288.967,257.600 289.400 C 257.600 289.883,256.978 290.000,254.400 290.000 C 252.533 290.000,251.200 290.167,251.200 290.400 C 251.200 290.653,248.400 290.800,243.600 290.800 C 237.111 290.800,236.000 290.888,236.000 291.400 C 236.000 291.930,230.178 292.000,186.000 292.000 C 141.822 292.000,136.000 291.930,136.000 291.400 C 136.000 290.917,135.378 290.800,132.800 290.800 C 130.933 290.800,129.600 290.633,129.600 290.400 C 129.600 290.180,128.610 290.000,127.400 290.000 C 125.794 290.000,125.200 289.851,125.200 289.447 C 125.200 289.048,124.335 288.815,122.100 288.610 C 118.847 288.312,117.200 287.426,117.200 285.973 C 117.200 285.595,116.930 285.182,116.600 285.055 C 116.153 284.884,116.000 284.171,116.000 282.255 C 116.000 280.340,115.847 279.627,115.400 279.455 C 114.959 279.286,114.800 278.591,114.800 276.836 C 114.800 275.522,114.620 274.336,114.400 274.200 C 114.180 274.064,114.000 272.608,114.000 270.964 C 114.000 268.676,113.859 267.921,113.400 267.745 C 112.920 267.561,112.800 266.688,112.800 263.400 C 112.800 260.112,112.680 259.239,112.200 259.055 C 111.729 258.875,111.600 258.060,111.600 255.262 C 111.600 252.582,111.451 251.574,111.000 251.200 C 110.531 250.811,110.400 249.708,110.400 246.151 C 110.400 243.384,110.243 241.600,110.000 241.600 C 109.757 241.600,109.600 239.816,109.600 237.049 C 109.600 233.492,109.469 232.389,109.000 232.000 C 108.542 231.620,108.400 230.581,108.400 227.600 C 108.400 224.619,108.258 223.580,107.800 223.200 C 107.324 222.805,107.200 221.642,107.200 217.551 C 107.200 214.384,107.046 212.400,106.800 212.400 C 106.557 212.400,106.400 210.616,106.400 207.849 C 106.400 204.292,106.269 203.189,105.800 202.800 C 105.332 202.411,105.200 201.314,105.200 197.800 C 105.200 194.286,105.068 193.189,104.600 192.800 C 104.142 192.420,104.000 191.381,104.000 188.400 C 104.000 185.419,103.858 184.380,103.400 184.000 C 102.974 183.646,102.800 182.711,102.800 180.775 C 102.800 179.275,102.620 177.936,102.400 177.800 C 102.180 177.664,102.000 176.505,102.000 175.225 C 102.000 173.645,101.808 172.738,101.400 172.400 C 101.020 172.085,100.800 171.202,100.800 169.994 C 100.800 168.667,100.617 168.015,100.200 167.855 C 99.823 167.711,99.600 167.099,99.600 166.213 C 99.600 165.436,99.420 164.800,99.200 164.800 C 98.980 164.800,98.800 164.344,98.800 163.787 C 98.800 163.231,98.521 162.668,98.179 162.537 C 97.728 162.363,97.627 161.986,97.811 161.149 C 97.967 160.437,97.899 160.000,97.632 160.000 C 97.394 160.000,97.200 159.730,97.200 159.400 C 97.200 159.070,96.930 158.800,96.600 158.800 C 96.270 158.800,96.000 158.530,96.000 158.200 C 96.000 157.870,95.730 157.600,95.400 157.600 C 95.070 157.600,94.800 157.420,94.800 157.200 C 94.800 156.980,94.530 156.800,94.200 156.800 C 93.870 156.800,93.600 156.530,93.600 156.200 C 93.600 155.827,93.222 155.600,92.600 155.600 C 91.978 155.600,91.600 155.373,91.600 155.000 C 91.600 154.662,91.242 154.400,90.781 154.400 C 90.330 154.400,89.545 153.950,89.035 153.400 C 88.498 152.821,87.665 152.400,87.054 152.400 C 86.384 152.400,86.000 152.182,86.000 151.800 C 86.000 151.427,85.622 151.200,85.000 151.200 C 84.378 151.200,84.000 150.973,84.000 150.600 C 84.000 150.270,83.730 150.000,83.400 150.000 C 83.070 150.000,82.800 149.820,82.800 149.600 C 82.800 149.380,82.350 149.200,81.800 149.200 C 81.178 149.200,80.800 148.973,80.800 148.600 C 80.800 148.270,80.530 148.000,80.200 148.000 C 79.870 148.000,79.600 147.730,79.600 147.400 C 79.600 147.070,79.330 146.800,79.000 146.800 C 78.670 146.800,78.400 146.530,78.400 146.200 C 78.400 145.827,78.022 145.600,77.400 145.600 C 76.850 145.600,76.400 145.420,76.400 145.200 C 76.400 144.980,76.130 144.800,75.800 144.800 C 75.470 144.800,75.200 144.620,75.200 144.400 C 75.200 144.180,74.980 144.000,74.711 144.000 C 74.026 144.000,69.200 139.147,69.200 138.457 C 69.200 138.146,68.750 137.475,68.200 136.965 C 67.650 136.455,67.200 135.689,67.200 135.262 C 67.200 134.835,66.930 134.382,66.600 134.255 C 66.270 134.129,66.000 133.670,66.000 133.236 C 66.000 132.802,65.820 132.336,65.600 132.200 C 65.380 132.064,65.200 131.598,65.200 131.164 C 65.200 130.730,64.930 130.271,64.600 130.145 C 64.236 130.005,64.000 129.400,64.000 128.606 C 64.000 127.887,63.730 127.074,63.400 126.800 C 62.994 126.463,62.800 125.558,62.800 124.000 C 62.800 122.442,62.606 121.537,62.200 121.200 C 61.306 120.458,61.306 104.488,62.200 104.145 C 62.564 104.005,62.800 103.400,62.800 102.606 C 62.800 101.887,63.070 101.074,63.400 100.800 C 63.730 100.526,64.000 99.986,64.000 99.600 C 64.000 99.214,64.270 98.674,64.600 98.400 C 64.930 98.126,65.200 97.564,65.200 97.151 C 65.200 96.738,65.380 96.400,65.600 96.400 C 65.820 96.400,66.000 96.062,66.000 95.649 C 66.000 95.236,66.270 94.674,66.600 94.400 C 66.930 94.126,67.200 93.601,67.200 93.232 C 67.200 92.864,67.920 91.859,68.800 91.000 C 69.680 90.141,70.400 89.218,70.400 88.949 C 70.400 88.251,75.026 83.600,75.720 83.600 C 76.039 83.600,77.084 82.790,78.044 81.800 C 79.003 80.810,80.095 80.000,80.470 80.000 C 80.846 80.000,81.264 79.820,81.400 79.600 C 81.536 79.380,81.975 79.200,82.375 79.200 C 82.775 79.200,83.326 78.930,83.600 78.600 C 83.874 78.270,84.594 78.000,85.200 78.000 C 85.806 78.000,86.526 77.730,86.800 77.400 C 87.074 77.070,87.906 76.800,88.649 76.800 C 89.392 76.800,90.000 76.620,90.000 76.400 C 90.000 76.147,92.925 76.000,97.976 76.000 C 102.863 76.000,106.049 76.155,106.200 76.400 C 106.336 76.620,107.072 76.800,107.836 76.800 C 108.702 76.800,109.312 77.026,109.455 77.400 C 109.595 77.764,110.200 78.000,110.994 78.000 C 111.713 78.000,112.526 78.270,112.800 78.600 C 113.074 78.930,113.485 79.200,113.715 79.200 C 114.424 79.200,117.200 80.536,117.200 80.877 C 117.200 81.055,117.526 81.200,117.925 81.200 C 118.324 81.200,119.168 81.740,119.800 82.400 C 120.432 83.060,121.245 83.600,121.605 83.600 C 121.966 83.600,122.683 84.050,123.200 84.600 C 123.717 85.150,124.406 85.600,124.732 85.600 C 125.057 85.600,126.009 86.320,126.846 87.200 C 127.683 88.080,128.690 88.808,129.084 88.817 C 129.478 88.826,130.242 89.366,130.781 90.017 C 131.321 90.668,132.075 91.200,132.458 91.200 C 132.840 91.200,133.264 91.380,133.400 91.600 C 133.808 92.260,134.400 92.052,134.400 91.249 C 134.400 90.836,134.670 90.274,135.000 90.000 C 135.330 89.726,135.600 89.195,135.600 88.821 C 135.600 88.446,136.050 87.717,136.600 87.200 C 137.150 86.683,137.600 85.926,137.600 85.518 C 137.600 85.109,137.870 84.671,138.200 84.545 C 138.530 84.418,138.800 83.996,138.800 83.606 C 138.800 83.217,139.070 82.674,139.400 82.400 C 139.730 82.126,140.000 81.575,140.000 81.175 C 140.000 80.775,140.180 80.336,140.400 80.200 C 140.620 80.064,140.805 79.648,140.811 79.276 C 140.817 78.904,141.357 78.075,142.011 77.433 C 142.665 76.792,143.200 75.937,143.200 75.533 C 143.200 75.130,143.380 74.800,143.600 74.800 C 143.820 74.800,144.000 74.474,144.000 74.075 C 144.000 73.676,144.540 72.832,145.200 72.200 C 145.860 71.568,146.400 70.771,146.400 70.429 C 146.400 69.617,159.603 56.400,160.414 56.400 C 160.757 56.400,161.741 55.680,162.600 54.800 C 163.459 53.920,164.491 53.200,164.894 53.200 C 165.296 53.200,165.729 52.930,165.855 52.600 C 165.982 52.270,166.497 52.000,167.000 52.000 C 167.503 52.000,168.018 51.730,168.145 51.400 C 168.271 51.070,168.730 50.800,169.164 50.800 C 169.598 50.800,170.064 50.620,170.200 50.400 C 170.336 50.180,170.775 50.000,171.175 50.000 C 171.575 50.000,172.126 49.730,172.400 49.400 C 172.674 49.070,173.217 48.800,173.606 48.800 C 173.996 48.800,174.418 48.530,174.545 48.200 C 174.687 47.829,175.295 47.600,176.138 47.600 C 176.888 47.600,177.726 47.330,178.000 47.000 C 178.274 46.670,179.005 46.400,179.625 46.400 C 180.245 46.400,180.864 46.220,181.000 46.000 C 181.153 45.753,184.663 45.600,190.200 45.600 C 195.737 45.600,199.247 45.753,199.400 46.000 M129.600 162.600 C 129.600 162.930,129.330 163.200,129.000 163.200 C 128.627 163.200,128.400 163.578,128.400 164.200 C 128.400 164.750,128.220 165.200,128.000 165.200 C 127.751 165.200,127.600 167.467,127.600 171.200 C 127.600 174.933,127.751 177.200,128.000 177.200 C 128.250 177.200,128.400 179.600,128.400 183.600 C 128.400 189.022,128.492 190.000,129.000 190.000 C 129.501 190.000,129.600 190.822,129.600 195.000 C 129.600 199.178,129.699 200.000,130.200 200.000 C 130.700 200.000,130.800 200.800,130.800 204.800 C 130.800 207.733,130.956 209.600,131.200 209.600 C 131.433 209.600,131.600 210.933,131.600 212.800 C 131.600 215.378,131.717 216.000,132.200 216.000 C 132.600 216.000,132.800 216.400,132.800 217.200 C 132.800 218.385,132.827 218.400,134.954 218.400 L 137.108 218.400 137.379 216.228 C 137.528 215.033,137.909 213.841,138.225 213.579 C 138.578 213.286,138.800 212.365,138.800 211.194 C 138.800 209.867,138.983 209.215,139.400 209.055 C 139.885 208.869,140.000 207.946,140.000 204.236 C 140.000 201.608,140.171 199.542,140.400 199.400 C 140.978 199.043,140.939 178.299,140.360 177.720 C 140.068 177.428,139.967 175.443,140.060 171.840 C 140.167 167.679,140.082 166.400,139.700 166.400 C 139.383 166.400,139.200 165.813,139.200 164.800 C 139.200 163.920,139.020 163.200,138.800 163.200 C 138.580 163.200,138.400 162.930,138.400 162.600 C 138.400 162.103,137.644 162.000,134.000 162.000 C 130.356 162.000,129.600 162.103,129.600 162.600 M239.200 162.600 C 239.200 162.930,238.930 163.200,238.600 163.200 C 238.087 163.200,238.000 164.356,238.000 171.200 C 238.000 178.044,238.087 179.200,238.600 179.200 C 239.104 179.200,239.200 180.067,239.200 184.600 C 239.200 187.933,239.353 190.000,239.600 190.000 C 239.847 190.000,240.000 192.067,240.000 195.400 C 240.000 199.933,240.096 200.800,240.600 200.800 C 241.111 200.800,241.200 201.867,241.200 208.000 C 241.200 214.133,241.289 215.200,241.800 215.200 C 242.173 215.200,242.400 215.578,242.400 216.200 C 242.400 216.822,242.627 217.200,243.000 217.200 C 243.330 217.200,243.600 217.470,243.600 217.800 C 243.600 218.718,246.741 218.628,247.082 217.700 C 247.224 217.315,247.578 216.856,247.870 216.680 C 248.161 216.504,248.400 215.750,248.400 215.004 C 248.400 214.258,248.580 213.536,248.800 213.400 C 249.029 213.258,249.200 211.192,249.200 208.564 C 249.200 204.854,249.315 203.931,249.800 203.745 C 251.043 203.268,250.594 165.200,249.346 165.200 C 249.030 165.200,248.800 164.778,248.800 164.200 C 248.800 163.400,248.600 163.200,247.800 163.200 C 247.178 163.200,246.800 162.973,246.800 162.600 C 246.800 162.109,246.111 162.000,243.000 162.000 C 239.889 162.000,239.200 162.109,239.200 162.600 M188.000 167.000 C 188.000 167.330,187.820 167.600,187.600 167.600 C 187.380 167.600,187.200 168.050,187.200 168.600 C 187.200 169.222,186.973 169.600,186.600 169.600 C 186.100 169.600,186.000 170.400,186.000 174.400 C 186.000 178.400,185.900 179.200,185.400 179.200 C 184.888 179.200,184.800 180.311,184.800 186.800 C 184.800 193.289,184.888 194.400,185.400 194.400 C 185.915 194.400,186.000 195.644,186.000 203.200 C 186.000 210.756,186.085 212.000,186.600 212.000 C 187.095 212.000,187.200 212.733,187.200 216.200 C 187.200 218.733,187.359 220.400,187.600 220.400 C 187.820 220.400,188.000 221.390,188.000 222.600 C 188.000 224.289,188.139 224.800,188.600 224.800 C 188.930 224.800,189.200 225.070,189.200 225.400 C 189.200 225.830,189.638 226.000,190.742 226.000 L 192.284 226.000 192.539 223.300 C 192.680 221.815,192.796 219.559,192.797 218.287 C 192.799 216.603,192.963 215.912,193.400 215.745 C 193.886 215.558,194.000 214.622,194.000 210.800 C 194.000 206.978,194.114 206.042,194.600 205.855 C 195.097 205.664,195.200 204.571,195.200 199.462 C 195.200 194.471,195.314 193.203,195.800 192.800 C 196.728 192.030,196.683 179.398,195.750 178.876 C 195.200 178.568,195.126 177.915,195.268 174.656 C 195.399 171.678,195.319 170.800,194.918 170.800 C 194.580 170.800,194.400 170.244,194.400 169.200 C 194.400 168.320,194.220 167.600,194.000 167.600 C 193.780 167.600,193.600 167.330,193.600 167.000 C 193.600 166.524,193.022 166.400,190.800 166.400 C 188.578 166.400,188.000 166.524,188.000 167.000 M262.179 311.166 C 262.686 311.986,261.892 325.600,261.337 325.600 C 260.902 325.600,260.800 327.466,260.800 335.400 C 260.800 343.844,260.717 345.200,260.200 345.200 C 259.739 345.200,259.600 345.711,259.600 347.400 C 259.600 349.480,259.545 349.600,258.600 349.600 C 258.050 349.600,257.600 349.780,257.600 350.000 C 257.600 350.220,256.880 350.400,256.000 350.400 C 254.844 350.400,254.400 350.567,254.400 351.000 C 254.400 351.497,253.644 351.600,250.000 351.600 C 246.356 351.600,245.600 351.703,245.600 352.200 C 245.600 352.719,244.133 352.800,234.800 352.800 C 225.467 352.800,224.000 352.881,224.000 353.400 C 224.000 353.929,219.156 354.000,182.800 354.000 C 146.444 354.000,141.600 353.929,141.600 353.400 C 141.600 352.896,140.733 352.800,136.200 352.800 C 131.450 352.800,130.800 352.721,130.800 352.141 C 130.800 351.553,130.298 351.506,126.203 351.708 C 123.575 351.837,121.509 351.777,121.380 351.567 C 121.255 351.365,120.848 351.197,120.476 351.193 C 118.419 351.172,118.000 349.730,118.000 342.667 C 118.000 338.685,117.841 335.949,117.600 335.800 C 117.352 335.647,117.200 332.012,117.200 326.225 C 117.200 318.422,117.102 316.817,116.600 316.400 C 115.986 315.890,115.719 311.615,116.267 311.067 C 116.686 310.647,261.919 310.746,262.179 311.166 " stroke="none" fill="#f4f4f4" fill-rule="evenodd"></path><path id="path1" d="M181.000 46.000 C 180.864 46.220,180.245 46.400,179.625 46.400 C 179.005 46.400,178.274 46.670,178.000 47.000 C 177.726 47.330,176.888 47.600,176.138 47.600 C 175.295 47.600,174.687 47.829,174.545 48.200 C 174.418 48.530,173.996 48.800,173.606 48.800 C 173.217 48.800,172.674 49.070,172.400 49.400 C 172.126 49.730,171.575 50.000,171.175 50.000 C 170.775 50.000,170.336 50.180,170.200 50.400 C 170.064 50.620,169.598 50.800,169.164 50.800 C 168.730 50.800,168.271 51.070,168.145 51.400 C 168.018 51.730,167.503 52.000,167.000 52.000 C 166.497 52.000,165.982 52.270,165.855 52.600 C 165.729 52.930,165.296 53.200,164.894 53.200 C 164.491 53.200,163.459 53.920,162.600 54.800 C 161.741 55.680,160.757 56.400,160.414 56.400 C 159.603 56.400,146.400 69.617,146.400 70.429 C 146.400 70.771,145.860 71.568,145.200 72.200 C 144.540 72.832,144.000 73.676,144.000 74.075 C 144.000 74.474,143.820 74.800,143.600 74.800 C 143.380 74.800,143.200 75.130,143.200 75.533 C 143.200 75.937,142.665 76.792,142.011 77.433 C 141.357 78.075,140.817 78.904,140.811 79.276 C 140.805 79.648,140.620 80.064,140.400 80.200 C 140.180 80.336,140.000 80.775,140.000 81.175 C 140.000 81.575,139.730 82.126,139.400 82.400 C 139.070 82.674,138.800 83.217,138.800 83.606 C 138.800 83.996,138.530 84.418,138.200 84.545 C 137.870 84.671,137.600 85.109,137.600 85.518 C 137.600 85.926,137.150 86.683,136.600 87.200 C 136.050 87.717,135.600 88.446,135.600 88.821 C 135.600 89.195,135.330 89.726,135.000 90.000 C 134.670 90.274,134.400 90.836,134.400 91.249 C 134.400 92.052,133.808 92.260,133.400 91.600 C 133.264 91.380,132.840 91.200,132.458 91.200 C 132.075 91.200,131.321 90.668,130.781 90.017 C 130.242 89.366,129.478 88.826,129.084 88.817 C 128.690 88.808,127.683 88.080,126.846 87.200 C 126.009 86.320,125.057 85.600,124.732 85.600 C 124.406 85.600,123.717 85.150,123.200 84.600 C 122.683 84.050,121.966 83.600,121.605 83.600 C 121.245 83.600,120.432 83.060,119.800 82.400 C 119.168 81.740,118.324 81.200,117.925 81.200 C 117.526 81.200,117.200 81.055,117.200 80.877 C 117.200 80.536,114.424 79.200,113.715 79.200 C 113.485 79.200,113.074 78.930,112.800 78.600 C 112.526 78.270,111.713 78.000,110.994 78.000 C 110.200 78.000,109.595 77.764,109.455 77.400 C 109.312 77.026,108.702 76.800,107.836 76.800 C 107.072 76.800,106.336 76.620,106.200 76.400 C 106.049 76.155,102.863 76.000,97.976 76.000 C 92.925 76.000,90.000 76.147,90.000 76.400 C 90.000 76.620,89.392 76.800,88.649 76.800 C 87.906 76.800,87.074 77.070,86.800 77.400 C 86.526 77.730,85.806 78.000,85.200 78.000 C 84.594 78.000,83.874 78.270,83.600 78.600 C 83.326 78.930,82.775 79.200,82.375 79.200 C 81.975 79.200,81.536 79.380,81.400 79.600 C 81.264 79.820,80.846 80.000,80.470 80.000 C 80.095 80.000,79.003 80.810,78.044 81.800 C 77.084 82.790,76.039 83.600,75.720 83.600 C 75.026 83.600,70.400 88.251,70.400 88.949 C 70.400 89.218,69.680 90.141,68.800 91.000 C 67.920 91.859,67.200 92.864,67.200 93.232 C 67.200 93.601,66.930 94.126,66.600 94.400 C 66.270 94.674,66.000 95.236,66.000 95.649 C 66.000 96.062,65.820 96.400,65.600 96.400 C 65.380 96.400,65.200 96.738,65.200 97.151 C 65.200 97.564,64.930 98.126,64.600 98.400 C 64.270 98.674,64.000 99.214,64.000 99.600 C 64.000 99.986,63.730 100.526,63.400 100.800 C 63.070 101.074,62.800 101.887,62.800 102.606 C 62.800 103.400,62.564 104.005,62.200 104.145 C 61.306 104.488,61.306 120.458,62.200 121.200 C 62.606 121.537,62.800 122.442,62.800 124.000 C 62.800 125.558,62.994 126.463,63.400 126.800 C 63.730 127.074,64.000 127.887,64.000 128.606 C 64.000 129.400,64.236 130.005,64.600 130.145 C 64.930 130.271,65.200 130.730,65.200 131.164 C 65.200 131.598,65.380 132.064,65.600 132.200 C 65.820 132.336,66.000 132.802,66.000 133.236 C 66.000 133.670,66.270 134.129,66.600 134.255 C 66.930 134.382,67.200 134.835,67.200 135.262 C 67.200 135.689,67.650 136.455,68.200 136.965 C 68.750 137.475,69.200 138.146,69.200 138.457 C 69.200 139.147,74.026 144.000,74.711 144.000 C 74.980 144.000,75.200 143.717,75.200 143.371 C 75.200 142.653,74.266 141.600,73.629 141.600 C 73.393 141.600,73.200 141.060,73.200 140.400 C 73.200 139.600,73.000 139.200,72.600 139.200 C 72.227 139.200,72.000 138.822,72.000 138.200 C 72.000 137.650,71.820 137.200,71.600 137.200 C 71.380 137.200,71.200 136.744,71.200 136.187 C 71.200 135.631,70.930 135.071,70.600 134.945 C 70.209 134.795,70.000 134.172,70.000 133.157 C 70.000 132.040,69.831 131.600,69.400 131.600 C 68.928 131.600,68.800 131.044,68.800 129.000 C 68.800 126.956,68.672 126.400,68.200 126.400 C 67.686 126.400,67.600 125.222,67.600 118.200 C 67.600 111.178,67.686 110.000,68.200 110.000 C 68.633 110.000,68.800 109.556,68.800 108.400 C 68.800 107.244,68.967 106.800,69.400 106.800 C 69.800 106.800,70.000 106.400,70.000 105.600 C 70.000 104.800,70.200 104.400,70.600 104.400 C 70.973 104.400,71.200 104.022,71.200 103.400 C 71.200 102.850,71.380 102.400,71.600 102.400 C 71.820 102.400,72.000 101.950,72.000 101.400 C 72.000 100.778,72.227 100.400,72.600 100.400 C 73.000 100.400,73.200 100.000,73.200 99.200 C 73.200 98.400,73.400 98.000,73.800 98.000 C 74.130 98.000,74.400 97.807,74.400 97.571 C 74.400 97.018,75.418 96.000,75.971 96.000 C 76.207 96.000,76.400 95.460,76.400 94.800 C 76.400 94.140,76.593 93.600,76.829 93.600 C 77.382 93.600,78.400 92.582,78.400 92.029 C 78.400 91.793,78.670 91.600,79.000 91.600 C 79.330 91.600,79.600 91.330,79.600 91.000 C 79.600 90.670,79.870 90.400,80.200 90.400 C 80.530 90.400,80.800 90.130,80.800 89.800 C 80.800 89.427,81.178 89.200,81.800 89.200 C 82.350 89.200,82.800 89.020,82.800 88.800 C 82.800 88.580,83.070 88.400,83.400 88.400 C 83.730 88.400,84.000 88.130,84.000 87.800 C 84.000 87.470,84.270 87.200,84.600 87.200 C 84.930 87.200,85.200 86.930,85.200 86.600 C 85.200 86.227,85.578 86.000,86.200 86.000 C 86.750 86.000,87.200 85.820,87.200 85.600 C 87.200 85.380,87.656 85.200,88.213 85.200 C 88.769 85.200,89.329 84.930,89.455 84.600 C 89.605 84.209,90.228 84.000,91.243 84.000 C 92.360 84.000,92.800 83.831,92.800 83.400 C 92.800 82.967,93.244 82.800,94.400 82.800 C 95.556 82.800,96.000 82.633,96.000 82.200 C 96.000 81.688,97.111 81.600,103.600 81.600 C 110.089 81.600,111.200 81.688,111.200 82.200 C 111.200 82.633,111.644 82.800,112.800 82.800 C 113.956 82.800,114.400 82.967,114.400 83.400 C 114.400 83.833,114.844 84.000,116.000 84.000 C 117.156 84.000,117.600 84.167,117.600 84.600 C 117.600 85.000,118.000 85.200,118.800 85.200 C 119.460 85.200,120.000 85.380,120.000 85.600 C 120.000 85.820,120.450 86.000,121.000 86.000 C 121.622 86.000,122.000 86.227,122.000 86.600 C 122.000 86.973,122.378 87.200,123.000 87.200 C 123.622 87.200,124.000 87.427,124.000 87.800 C 124.000 88.130,124.270 88.400,124.600 88.400 C 124.930 88.400,125.200 88.580,125.200 88.800 C 125.200 89.020,125.740 89.200,126.400 89.200 C 127.200 89.200,127.600 89.400,127.600 89.800 C 127.600 90.130,127.780 90.400,128.000 90.400 C 128.220 90.400,128.400 90.670,128.400 91.000 C 128.400 91.400,128.800 91.600,129.600 91.600 C 130.260 91.600,130.800 91.793,130.800 92.029 C 130.800 92.582,131.818 93.600,132.371 93.600 C 132.607 93.600,132.800 93.870,132.800 94.200 C 132.800 94.600,133.200 94.800,134.000 94.800 C 134.660 94.800,135.200 94.993,135.200 95.229 C 135.200 95.992,136.317 96.800,137.371 96.800 C 138.019 96.800,138.400 97.022,138.400 97.400 C 138.400 97.773,138.778 98.000,139.400 98.000 C 140.200 98.000,140.400 97.800,140.400 97.000 C 140.400 96.378,140.627 96.000,141.000 96.000 C 141.378 96.000,141.600 95.619,141.600 94.971 C 141.600 93.917,142.408 92.800,143.171 92.800 C 143.407 92.800,143.600 92.260,143.600 91.600 C 143.600 90.800,143.800 90.400,144.200 90.400 C 144.573 90.400,144.800 90.022,144.800 89.400 C 144.800 88.850,144.980 88.400,145.200 88.400 C 145.420 88.400,145.600 87.860,145.600 87.200 C 145.600 86.400,145.800 86.000,146.200 86.000 C 146.573 86.000,146.800 85.622,146.800 85.000 C 146.800 84.378,147.027 84.000,147.400 84.000 C 147.730 84.000,148.000 83.730,148.000 83.400 C 148.000 83.070,148.270 82.800,148.600 82.800 C 148.973 82.800,149.200 82.422,149.200 81.800 C 149.200 81.250,149.380 80.800,149.600 80.800 C 149.820 80.800,150.000 80.260,150.000 79.600 C 150.000 78.800,150.200 78.400,150.600 78.400 C 150.930 78.400,151.200 78.220,151.200 78.000 C 151.200 77.780,151.470 77.600,151.800 77.600 C 152.178 77.600,152.400 77.219,152.400 76.571 C 152.400 75.517,153.208 74.400,153.971 74.400 C 154.207 74.400,154.400 74.130,154.400 73.800 C 154.400 73.470,154.670 73.200,155.000 73.200 C 155.330 73.200,155.600 72.930,155.600 72.600 C 155.600 72.270,155.870 72.000,156.200 72.000 C 156.530 72.000,156.800 71.807,156.800 71.571 C 156.800 71.018,157.818 70.000,158.371 70.000 C 158.607 70.000,158.800 69.730,158.800 69.400 C 158.800 69.070,159.070 68.800,159.400 68.800 C 159.730 68.800,160.000 68.607,160.000 68.371 C 160.000 67.818,161.018 66.800,161.571 66.800 C 161.807 66.800,162.000 66.530,162.000 66.200 C 162.000 65.870,162.270 65.600,162.600 65.600 C 162.930 65.600,163.200 65.330,163.200 65.000 C 163.200 64.670,163.470 64.400,163.800 64.400 C 164.130 64.400,164.400 64.207,164.400 63.971 C 164.400 63.208,165.517 62.400,166.571 62.400 C 167.219 62.400,167.600 62.178,167.600 61.800 C 167.600 61.470,167.780 61.200,168.000 61.200 C 168.220 61.200,168.400 60.930,168.400 60.600 C 168.400 60.270,168.670 60.000,169.000 60.000 C 169.330 60.000,169.600 59.820,169.600 59.600 C 169.600 59.380,170.056 59.200,170.613 59.200 C 171.169 59.200,171.729 58.930,171.855 58.600 C 171.982 58.270,172.516 58.000,173.043 58.000 C 173.627 58.000,174.000 57.766,174.000 57.400 C 174.000 57.027,174.378 56.800,175.000 56.800 C 175.622 56.800,176.000 56.573,176.000 56.200 C 176.000 55.800,176.400 55.600,177.200 55.600 C 177.860 55.600,178.400 55.420,178.400 55.200 C 178.400 54.980,178.850 54.800,179.400 54.800 C 180.022 54.800,180.400 54.573,180.400 54.200 C 180.400 53.767,180.844 53.600,182.000 53.600 C 183.156 53.600,183.600 53.433,183.600 53.000 C 183.600 52.567,184.044 52.400,185.200 52.400 C 186.080 52.400,186.800 52.220,186.800 52.000 C 186.800 51.745,190.000 51.600,195.600 51.600 C 201.200 51.600,204.400 51.745,204.400 52.000 C 204.400 52.220,205.390 52.400,206.600 52.400 C 208.289 52.400,208.800 52.539,208.800 53.000 C 208.800 53.433,209.244 53.600,210.400 53.600 C 211.556 53.600,212.000 53.767,212.000 54.200 C 212.000 54.573,212.378 54.800,213.000 54.800 C 213.550 54.800,214.000 54.980,214.000 55.200 C 214.000 55.420,214.540 55.600,215.200 55.600 C 216.000 55.600,216.400 55.800,216.400 56.200 C 216.400 56.573,216.778 56.800,217.400 56.800 C 218.022 56.800,218.400 57.027,218.400 57.400 C 218.400 57.800,218.800 58.000,219.600 58.000 C 220.260 58.000,220.800 58.193,220.800 58.429 C 220.800 59.066,221.853 60.000,222.571 60.000 C 222.917 60.000,223.200 59.770,223.200 59.488 C 223.200 58.806,218.327 54.000,217.635 54.000 C 217.336 54.000,216.675 53.550,216.165 53.000 C 215.655 52.450,214.889 52.000,214.462 52.000 C 214.035 52.000,213.582 51.730,213.455 51.400 C 213.329 51.070,212.870 50.800,212.436 50.800 C 212.002 50.800,211.536 50.620,211.400 50.400 C 211.264 50.180,210.798 50.000,210.364 50.000 C 209.930 50.000,209.471 49.730,209.345 49.400 C 209.218 49.070,208.703 48.800,208.200 48.800 C 207.697 48.800,207.182 48.530,207.055 48.200 C 206.913 47.829,206.305 47.600,205.462 47.600 C 204.712 47.600,203.874 47.330,203.600 47.000 C 203.298 46.636,202.422 46.400,201.375 46.400 C 200.425 46.400,199.536 46.220,199.400 46.000 C 199.247 45.753,195.737 45.600,190.200 45.600 C 184.663 45.600,181.153 45.753,181.000 46.000 M248.400 53.338 C 248.400 53.978,249.667 55.200,250.331 55.200 C 250.982 55.200,250.918 54.061,250.229 53.371 C 249.507 52.649,248.400 52.629,248.400 53.338 M276.400 75.400 C 276.126 75.730,275.294 76.000,274.551 76.000 C 273.808 76.000,273.200 76.180,273.200 76.400 C 273.200 76.620,272.592 76.800,271.849 76.800 C 271.106 76.800,270.274 77.070,270.000 77.400 C 269.726 77.730,269.006 78.000,268.400 78.000 C 267.794 78.000,267.074 78.270,266.800 78.600 C 266.526 78.930,265.975 79.200,265.575 79.200 C 265.175 79.200,264.736 79.380,264.600 79.600 C 264.464 79.820,264.025 80.000,263.625 80.000 C 263.225 80.000,262.674 80.270,262.400 80.600 C 262.126 80.930,261.558 81.200,261.138 81.200 C 260.719 81.200,260.271 81.470,260.145 81.800 C 260.018 82.130,259.596 82.400,259.206 82.400 C 258.817 82.400,258.274 82.670,258.000 83.000 C 257.726 83.330,257.175 83.600,256.775 83.600 C 256.375 83.600,255.936 83.780,255.800 84.000 C 255.664 84.220,254.953 84.400,254.219 84.400 C 253.403 84.400,252.796 84.633,252.655 85.000 C 252.529 85.330,252.081 85.600,251.662 85.600 C 251.242 85.600,250.681 85.861,250.416 86.180 C 250.140 86.514,249.055 86.811,247.867 86.880 C 245.799 87.000,244.192 89.200,246.173 89.200 C 246.574 89.200,246.800 89.559,246.800 90.195 C 246.800 92.336,247.777 92.800,252.289 92.800 C 255.677 92.800,256.400 92.694,256.400 92.200 C 256.400 91.827,256.778 91.600,257.400 91.600 C 258.022 91.600,258.400 91.373,258.400 91.000 C 258.400 90.567,258.844 90.400,260.000 90.400 C 261.156 90.400,261.600 90.233,261.600 89.800 C 261.600 89.400,262.000 89.200,262.800 89.200 C 263.460 89.200,264.000 89.020,264.000 88.800 C 264.000 88.580,264.450 88.400,265.000 88.400 C 265.622 88.400,266.000 88.173,266.000 87.800 C 266.000 87.400,266.400 87.200,267.200 87.200 C 268.000 87.200,268.400 87.000,268.400 86.600 C 268.400 86.227,268.778 86.000,269.400 86.000 C 269.950 86.000,270.400 85.820,270.400 85.600 C 270.400 85.380,270.856 85.200,271.413 85.200 C 271.969 85.200,272.529 84.930,272.655 84.600 C 272.805 84.209,273.428 84.000,274.443 84.000 C 275.560 84.000,276.000 83.831,276.000 83.400 C 276.000 82.967,276.444 82.800,277.600 82.800 C 278.756 82.800,279.200 82.633,279.200 82.200 C 279.200 81.767,279.644 81.600,280.800 81.600 C 281.680 81.600,282.400 81.420,282.400 81.200 C 282.400 80.958,284.133 80.800,286.800 80.800 C 289.467 80.800,291.200 80.958,291.200 81.200 C 291.200 81.420,291.920 81.600,292.800 81.600 C 293.956 81.600,294.400 81.767,294.400 82.200 C 294.400 82.633,294.844 82.800,296.000 82.800 C 297.156 82.800,297.600 82.967,297.600 83.400 C 297.600 83.738,297.958 84.000,298.419 84.000 C 298.870 84.000,299.655 84.450,300.165 85.000 C 300.702 85.579,301.535 86.000,302.146 86.000 C 302.816 86.000,303.200 86.218,303.200 86.600 C 303.200 86.930,303.380 87.200,303.600 87.200 C 303.820 87.200,304.000 87.470,304.000 87.800 C 304.000 88.130,304.270 88.400,304.600 88.400 C 304.930 88.400,305.200 88.580,305.200 88.800 C 305.200 89.020,305.560 89.200,306.000 89.200 C 306.440 89.200,306.800 89.010,306.800 88.778 C 306.800 88.123,302.220 83.600,301.557 83.600 C 301.232 83.600,300.172 82.790,299.200 81.800 C 298.228 80.810,297.142 80.000,296.786 80.000 C 296.431 80.000,295.717 79.550,295.200 79.000 C 294.683 78.450,293.951 78.000,293.573 78.000 C 293.195 78.000,292.782 77.730,292.655 77.400 C 292.512 77.026,291.902 76.800,291.036 76.800 C 290.272 76.800,289.536 76.620,289.400 76.400 C 289.264 76.180,288.645 76.000,288.025 76.000 C 287.405 76.000,286.674 75.730,286.400 75.400 C 286.011 74.932,284.914 74.800,281.400 74.800 C 277.886 74.800,276.789 74.932,276.400 75.400 M326.580 78.033 C 326.433 78.270,326.782 78.955,327.356 79.554 C 327.930 80.154,328.400 80.927,328.400 81.273 C 328.400 81.619,328.670 82.126,329.000 82.400 C 329.330 82.674,329.600 83.155,329.600 83.468 C 329.600 83.782,330.050 84.455,330.600 84.965 C 331.240 85.558,331.600 86.325,331.600 87.097 C 331.600 87.760,331.870 88.526,332.200 88.800 C 332.530 89.074,332.800 89.887,332.800 90.606 C 332.800 91.400,333.036 92.005,333.400 92.145 C 333.774 92.288,334.000 92.898,334.000 93.764 C 334.000 94.528,334.180 95.264,334.400 95.400 C 334.620 95.536,334.800 96.884,334.800 98.395 C 334.800 100.304,334.983 101.326,335.400 101.743 C 335.899 102.242,336.000 103.918,336.000 111.722 C 336.000 119.572,335.902 121.183,335.400 121.600 C 334.991 121.939,334.800 122.847,334.800 124.449 C 334.800 125.750,334.621 126.800,334.400 126.800 C 334.180 126.800,334.000 127.408,334.000 128.151 C 334.000 128.894,333.730 129.726,333.400 130.000 C 333.070 130.274,332.800 131.087,332.800 131.806 C 332.800 132.600,332.564 133.205,332.200 133.345 C 331.826 133.488,331.600 134.098,331.600 134.964 C 331.600 135.728,331.420 136.464,331.200 136.600 C 330.980 136.736,330.800 137.202,330.800 137.636 C 330.800 138.070,330.530 138.529,330.200 138.655 C 329.870 138.782,329.600 139.297,329.600 139.800 C 329.600 140.303,329.330 140.818,329.000 140.945 C 328.670 141.071,328.400 141.519,328.400 141.938 C 328.400 142.358,328.130 142.926,327.800 143.200 C 327.470 143.474,327.200 144.036,327.200 144.449 C 327.200 144.862,327.020 145.200,326.800 145.200 C 326.580 145.200,326.392 145.605,326.383 146.100 C 326.374 146.595,325.834 147.442,325.183 147.981 C 324.532 148.521,324.000 149.255,324.000 149.612 C 324.000 149.968,323.550 150.683,323.000 151.200 C 322.450 151.717,322.000 152.423,322.000 152.770 C 321.999 153.116,321.279 154.098,320.400 154.952 C 319.520 155.805,318.800 156.745,318.800 157.041 C 318.800 157.719,311.753 164.800,311.078 164.800 C 310.803 164.800,309.863 165.514,308.989 166.387 C 308.115 167.260,307.116 167.980,306.770 167.987 C 306.423 167.994,305.717 168.450,305.200 169.000 C 304.683 169.550,303.996 170.000,303.672 170.000 C 302.485 170.000,298.000 175.006,298.000 176.331 C 298.000 177.003,297.820 177.664,297.600 177.800 C 297.380 177.936,297.200 178.825,297.200 179.775 C 297.200 180.822,296.964 181.698,296.600 182.000 C 296.175 182.353,296.000 183.286,296.000 185.200 C 296.000 187.114,295.825 188.047,295.400 188.400 C 294.968 188.759,294.800 189.708,294.800 191.800 C 294.800 193.892,294.632 194.841,294.200 195.200 C 293.755 195.570,293.600 196.556,293.600 199.025 C 293.600 200.855,293.420 202.464,293.200 202.600 C 292.980 202.736,292.800 204.437,292.800 206.381 C 292.800 209.153,292.671 209.964,292.200 210.145 C 291.720 210.329,291.600 211.207,291.600 214.545 C 291.600 217.882,291.480 218.760,291.000 218.945 C 290.515 219.131,290.400 220.054,290.400 223.764 C 290.400 226.392,290.229 228.458,290.000 228.600 C 289.767 228.744,289.600 231.008,289.600 234.036 C 289.600 238.280,289.491 239.267,289.000 239.455 C 288.505 239.645,288.400 240.696,288.400 245.455 C 288.400 250.215,288.295 251.265,287.800 251.455 C 287.300 251.647,287.200 252.800,287.200 258.394 C 287.200 263.869,287.090 265.194,286.600 265.600 C 286.108 266.009,286.000 267.378,286.000 273.225 C 286.000 277.546,285.842 280.450,285.600 280.600 C 285.354 280.752,285.200 284.054,285.200 289.175 C 285.200 296.089,285.098 297.587,284.600 298.000 C 284.084 298.428,284.000 300.864,284.000 315.400 C 284.000 329.936,283.916 332.372,283.400 332.800 C 282.892 333.222,282.800 335.069,282.800 344.849 C 282.800 352.283,282.657 356.400,282.400 356.400 C 282.180 356.400,282.000 357.008,282.000 357.751 C 282.000 358.494,281.730 359.326,281.400 359.600 C 281.070 359.874,280.800 360.629,280.800 361.278 C 280.800 362.517,276.544 367.200,275.419 367.200 C 275.132 367.200,274.674 367.470,274.400 367.800 C 274.126 368.130,273.586 368.400,273.200 368.400 C 272.814 368.400,272.274 368.670,272.000 369.000 C 271.698 369.364,270.822 369.600,269.775 369.600 C 268.825 369.600,267.936 369.780,267.800 370.000 C 267.664 370.220,266.775 370.400,265.825 370.400 C 264.778 370.400,263.902 370.636,263.600 371.000 C 263.241 371.432,262.292 371.600,260.200 371.600 C 258.108 371.600,257.159 371.768,256.800 372.200 C 256.419 372.659,255.378 372.800,252.375 372.800 C 250.188 372.800,248.338 372.977,248.200 373.200 C 248.060 373.427,246.072 373.600,243.605 373.600 C 240.274 373.600,239.117 373.740,238.657 374.200 C 238.181 374.676,236.903 374.800,232.471 374.800 C 227.875 374.800,226.845 374.906,226.655 375.400 C 226.462 375.903,225.238 376.000,219.062 376.000 C 213.004 376.000,211.610 376.106,211.200 376.600 C 210.448 377.506,165.552 377.506,164.800 376.600 C 164.394 376.110,163.069 376.000,157.594 376.000 C 152.000 376.000,150.847 375.900,150.655 375.400 C 150.468 374.911,149.496 374.800,145.384 374.800 C 141.436 374.800,140.213 374.670,139.743 374.200 C 139.290 373.747,138.168 373.600,135.171 373.600 C 132.790 373.600,131.200 373.440,131.200 373.200 C 131.200 372.959,129.529 372.800,126.987 372.800 C 123.612 372.800,122.729 372.681,122.545 372.200 C 122.367 371.738,121.599 371.600,119.200 371.600 C 116.801 371.600,116.033 371.462,115.855 371.000 C 115.686 370.559,114.991 370.400,113.236 370.400 C 111.922 370.400,110.736 370.220,110.600 370.000 C 110.464 369.780,109.575 369.600,108.625 369.600 C 107.553 369.600,106.703 369.365,106.383 368.980 C 105.709 368.167,103.847 368.387,103.674 369.300 C 103.593 369.726,103.787 370.000,104.171 370.000 C 104.575 370.000,104.800 370.357,104.800 371.000 C 104.800 371.800,105.000 372.000,105.800 372.000 C 106.422 372.000,106.800 372.227,106.800 372.600 C 106.800 372.930,107.070 373.200,107.400 373.200 C 107.730 373.200,108.000 373.470,108.000 373.800 C 108.000 374.233,108.444 374.400,109.600 374.400 C 110.756 374.400,111.200 374.567,111.200 375.000 C 111.200 375.461,111.711 375.600,113.400 375.600 C 114.610 375.600,115.600 375.780,115.600 376.000 C 115.600 376.226,116.733 376.400,118.200 376.400 C 120.244 376.400,120.800 376.528,120.800 377.000 C 120.800 377.486,121.444 377.600,124.200 377.600 C 126.956 377.600,127.600 377.714,127.600 378.200 C 127.600 378.695,128.333 378.800,131.800 378.800 C 134.333 378.800,136.000 378.959,136.000 379.200 C 136.000 379.442,137.733 379.600,140.400 379.600 C 144.044 379.600,144.800 379.703,144.800 380.200 C 144.800 380.704,145.667 380.800,150.200 380.800 C 154.733 380.800,155.600 380.896,155.600 381.400 C 155.600 381.910,156.644 382.000,162.600 382.000 C 167.000 382.000,169.600 382.149,169.600 382.400 C 169.600 382.662,177.800 382.800,193.400 382.800 C 209.000 382.800,217.200 382.662,217.200 382.400 C 217.200 382.147,220.000 382.000,224.800 382.000 C 231.289 382.000,232.400 381.912,232.400 381.400 C 232.400 380.893,233.333 380.800,238.400 380.800 C 243.467 380.800,244.400 380.707,244.400 380.200 C 244.400 379.699,245.222 379.600,249.400 379.600 C 252.467 379.600,254.400 379.445,254.400 379.200 C 254.400 378.959,256.067 378.800,258.600 378.800 C 262.067 378.800,262.800 378.695,262.800 378.200 C 262.800 377.717,263.422 377.600,266.000 377.600 C 268.578 377.600,269.200 377.483,269.200 377.000 C 269.200 376.539,269.711 376.400,271.400 376.400 C 272.610 376.400,273.600 376.220,273.600 376.000 C 273.600 375.780,274.590 375.600,275.800 375.600 C 277.489 375.600,278.000 375.461,278.000 375.000 C 278.000 374.600,278.400 374.400,279.200 374.400 C 280.000 374.400,280.400 374.200,280.400 373.800 C 280.400 373.427,280.778 373.200,281.400 373.200 C 282.022 373.200,282.400 372.973,282.400 372.600 C 282.400 372.270,282.593 372.000,282.829 372.000 C 283.382 372.000,284.400 370.982,284.400 370.429 C 284.400 370.193,284.670 370.000,285.000 370.000 C 285.330 370.000,285.600 369.730,285.600 369.400 C 285.600 369.070,285.870 368.800,286.200 368.800 C 286.633 368.800,286.800 368.356,286.800 367.200 C 286.800 366.044,286.967 365.600,287.400 365.600 C 287.833 365.600,288.000 365.156,288.000 364.000 C 288.000 363.120,288.180 362.400,288.400 362.400 C 288.658 362.400,288.800 358.133,288.800 350.400 C 288.800 340.000,288.880 338.400,289.400 338.400 C 289.924 338.400,290.000 336.222,290.000 321.200 C 290.000 306.178,290.076 304.000,290.600 304.000 C 291.115 304.000,291.200 302.756,291.200 295.200 C 291.200 289.600,291.345 286.400,291.600 286.400 C 291.853 286.400,292.000 283.600,292.000 278.800 C 292.000 272.311,292.088 271.200,292.600 271.200 C 293.110 271.200,293.200 270.156,293.200 264.200 C 293.200 258.244,293.290 257.200,293.800 257.200 C 294.307 257.200,294.400 256.267,294.400 251.200 C 294.400 247.467,294.551 245.200,294.800 245.200 C 295.047 245.200,295.200 243.133,295.200 239.800 C 295.200 235.267,295.296 234.400,295.800 234.400 C 296.300 234.400,296.400 233.600,296.400 229.600 C 296.400 225.600,296.500 224.800,297.000 224.800 C 297.497 224.800,297.600 224.044,297.600 220.400 C 297.600 216.756,297.703 216.000,298.200 216.000 C 298.691 216.000,298.800 215.311,298.800 212.200 C 298.800 209.933,298.961 208.400,299.200 208.400 C 299.439 208.400,299.600 206.867,299.600 204.600 C 299.600 201.489,299.709 200.800,300.200 200.800 C 300.683 200.800,300.800 200.178,300.800 197.600 C 300.800 195.022,300.917 194.400,301.400 194.400 C 301.883 194.400,302.000 193.778,302.000 191.200 C 302.000 189.333,302.167 188.000,302.400 188.000 C 302.620 188.000,302.800 187.010,302.800 185.800 C 302.800 184.111,302.939 183.600,303.400 183.600 C 303.833 183.600,304.000 183.156,304.000 182.000 C 304.000 180.844,304.167 180.400,304.600 180.400 C 304.930 180.400,305.200 180.130,305.200 179.800 C 305.200 179.470,305.393 179.200,305.629 179.200 C 306.182 179.200,307.200 178.182,307.200 177.629 C 307.200 177.393,307.470 177.200,307.800 177.200 C 308.130 177.200,308.400 176.930,308.400 176.600 C 308.400 176.227,308.778 176.000,309.400 176.000 C 310.022 176.000,310.400 175.773,310.400 175.400 C 310.400 175.070,310.670 174.800,311.000 174.800 C 311.330 174.800,311.600 174.620,311.600 174.400 C 311.600 174.180,312.140 174.000,312.800 174.000 C 313.600 174.000,314.000 173.800,314.000 173.400 C 314.000 173.070,314.180 172.800,314.400 172.800 C 314.620 172.800,314.800 172.530,314.800 172.200 C 314.800 171.870,315.070 171.600,315.400 171.600 C 315.730 171.600,316.000 171.420,316.000 171.200 C 316.000 170.980,316.450 170.800,317.000 170.800 C 317.622 170.800,318.000 170.573,318.000 170.200 C 318.000 169.870,318.270 169.600,318.600 169.600 C 318.930 169.600,319.200 169.330,319.200 169.000 C 319.200 168.670,319.470 168.400,319.800 168.400 C 320.130 168.400,320.400 168.130,320.400 167.800 C 320.400 167.470,320.593 167.200,320.829 167.200 C 321.382 167.200,322.400 166.182,322.400 165.629 C 322.400 165.393,322.670 165.200,323.000 165.200 C 323.330 165.200,323.600 164.930,323.600 164.600 C 323.600 164.270,323.870 164.000,324.200 164.000 C 324.573 164.000,324.800 163.622,324.800 163.000 C 324.800 162.450,324.980 162.000,325.200 162.000 C 325.420 162.000,325.600 161.730,325.600 161.400 C 325.600 161.070,325.870 160.800,326.200 160.800 C 326.530 160.800,326.800 160.620,326.800 160.400 C 326.800 160.180,327.070 160.000,327.400 160.000 C 327.800 160.000,328.000 159.600,328.000 158.800 C 328.000 158.140,328.180 157.600,328.400 157.600 C 328.620 157.600,328.800 157.330,328.800 157.000 C 328.800 156.670,329.070 156.400,329.400 156.400 C 329.773 156.400,330.000 156.022,330.000 155.400 C 330.000 154.778,330.227 154.400,330.600 154.400 C 330.930 154.400,331.200 154.130,331.200 153.800 C 331.200 153.470,331.470 153.200,331.800 153.200 C 332.173 153.200,332.400 152.822,332.400 152.200 C 332.400 151.650,332.580 151.200,332.800 151.200 C 333.020 151.200,333.200 150.660,333.200 150.000 C 333.200 149.200,333.400 148.800,333.800 148.800 C 334.173 148.800,334.400 148.422,334.400 147.800 C 334.400 147.178,334.627 146.800,335.000 146.800 C 335.373 146.800,335.600 146.422,335.600 145.800 C 335.600 145.250,335.780 144.800,336.000 144.800 C 336.220 144.800,336.400 144.260,336.400 143.600 C 336.400 142.800,336.600 142.400,337.000 142.400 C 337.433 142.400,337.600 141.956,337.600 140.800 C 337.600 139.644,337.767 139.200,338.200 139.200 C 338.633 139.200,338.800 138.756,338.800 137.600 C 338.800 136.444,338.967 136.000,339.400 136.000 C 339.833 136.000,340.000 135.556,340.000 134.400 C 340.000 133.520,340.180 132.800,340.400 132.800 C 340.629 132.800,340.800 131.600,340.800 130.000 C 340.800 127.778,340.924 127.200,341.400 127.200 C 341.918 127.200,342.000 125.800,342.000 117.000 C 342.000 108.200,341.918 106.800,341.400 106.800 C 340.917 106.800,340.800 106.178,340.800 103.600 C 340.800 101.733,340.633 100.400,340.400 100.400 C 340.180 100.400,340.000 99.680,340.000 98.800 C 340.000 97.644,339.833 97.200,339.400 97.200 C 338.956 97.200,338.800 96.733,338.800 95.400 C 338.800 94.067,338.644 93.600,338.200 93.600 C 337.767 93.600,337.600 93.156,337.600 92.000 C 337.600 91.120,337.407 90.400,337.171 90.400 C 336.408 90.400,335.600 89.283,335.600 88.229 C 335.600 87.581,335.378 87.200,335.000 87.200 C 334.627 87.200,334.400 86.822,334.400 86.200 C 334.400 85.578,334.173 85.200,333.800 85.200 C 333.470 85.200,333.200 84.930,333.200 84.600 C 333.200 84.270,333.020 84.000,332.800 84.000 C 332.580 84.000,332.400 83.550,332.400 83.000 C 332.400 82.378,332.173 82.000,331.800 82.000 C 331.470 82.000,331.200 81.730,331.200 81.400 C 331.200 81.070,330.930 80.800,330.600 80.800 C 330.270 80.800,330.000 80.530,330.000 80.200 C 330.000 79.870,329.807 79.600,329.571 79.600 C 329.018 79.600,328.000 78.582,328.000 78.029 C 328.000 77.470,326.926 77.473,326.580 78.033 M97.726 161.450 C 97.576 161.840,97.740 162.247,98.138 162.469 C 98.502 162.673,98.800 163.281,98.800 163.820 C 98.800 164.359,98.980 164.800,99.200 164.800 C 99.420 164.800,99.600 165.436,99.600 166.213 C 99.600 167.099,99.823 167.711,100.200 167.855 C 100.617 168.015,100.800 168.667,100.800 169.994 C 100.800 171.202,101.020 172.085,101.400 172.400 C 101.808 172.738,102.000 173.645,102.000 175.225 C 102.000 176.505,102.180 177.664,102.400 177.800 C 102.620 177.936,102.800 179.275,102.800 180.775 C 102.800 182.711,102.974 183.646,103.400 184.000 C 103.858 184.380,104.000 185.419,104.000 188.400 C 104.000 191.381,104.142 192.420,104.600 192.800 C 105.068 193.189,105.200 194.286,105.200 197.800 C 105.200 201.314,105.332 202.411,105.800 202.800 C 106.269 203.189,106.400 204.292,106.400 207.849 C 106.400 210.616,106.557 212.400,106.800 212.400 C 107.046 212.400,107.200 214.384,107.200 217.551 C 107.200 221.642,107.324 222.805,107.800 223.200 C 108.258 223.580,108.400 224.619,108.400 227.600 C 108.400 230.581,108.542 231.620,109.000 232.000 C 109.469 232.389,109.600 233.492,109.600 237.049 C 109.600 239.816,109.757 241.600,110.000 241.600 C 110.243 241.600,110.400 243.384,110.400 246.151 C 110.400 249.708,110.531 250.811,111.000 251.200 C 111.451 251.574,111.600 252.582,111.600 255.262 C 111.600 258.060,111.729 258.875,112.200 259.055 C 112.680 259.239,112.800 260.112,112.800 263.400 C 112.800 266.688,112.920 267.561,113.400 267.745 C 113.859 267.921,114.000 268.676,114.000 270.964 C 114.000 272.608,114.180 274.064,114.400 274.200 C 114.620 274.336,114.800 275.522,114.800 276.836 C 114.800 278.591,114.959 279.286,115.400 279.455 C 115.847 279.627,116.000 280.340,116.000 282.255 C 116.000 284.171,116.153 284.884,116.600 285.055 C 116.930 285.182,117.200 285.595,117.200 285.973 C 117.200 287.153,118.909 288.400,120.526 288.400 L 122.000 288.400 122.000 286.400 C 122.000 284.889,121.853 284.400,121.400 284.400 C 120.928 284.400,120.800 283.844,120.800 281.800 C 120.800 279.756,120.672 279.200,120.200 279.200 C 119.714 279.200,119.600 278.556,119.600 275.800 C 119.600 273.800,119.435 272.400,119.200 272.400 C 118.959 272.400,118.800 270.733,118.800 268.200 C 118.800 264.733,118.695 264.000,118.200 264.000 C 117.709 264.000,117.600 263.311,117.600 260.200 C 117.600 257.089,117.491 256.400,117.000 256.400 C 116.499 256.400,116.400 255.578,116.400 251.400 C 116.400 248.333,116.245 246.400,116.000 246.400 C 115.756 246.400,115.600 244.533,115.600 241.600 C 115.600 237.600,115.500 236.800,115.000 236.800 C 114.503 236.800,114.400 236.044,114.400 232.400 C 114.400 228.756,114.297 228.000,113.800 228.000 C 113.296 228.000,113.200 227.133,113.200 222.600 C 113.200 218.067,113.104 217.200,112.600 217.200 C 112.100 217.200,112.000 216.400,112.000 212.400 C 112.000 209.467,111.844 207.600,111.600 207.600 C 111.355 207.600,111.200 205.667,111.200 202.600 C 111.200 198.422,111.101 197.600,110.600 197.600 C 110.105 197.600,110.000 196.867,110.000 193.400 C 110.000 189.933,109.895 189.200,109.400 189.200 C 108.917 189.200,108.800 188.578,108.800 186.000 C 108.800 184.133,108.633 182.800,108.400 182.800 C 108.171 182.800,108.000 181.600,108.000 180.000 C 108.000 177.778,107.876 177.200,107.400 177.200 C 106.939 177.200,106.800 176.689,106.800 175.000 C 106.800 173.311,106.661 172.800,106.200 172.800 C 105.767 172.800,105.600 172.356,105.600 171.200 C 105.600 170.320,105.420 169.600,105.200 169.600 C 104.980 169.600,104.800 169.150,104.800 168.600 C 104.800 167.978,104.573 167.600,104.200 167.600 C 103.800 167.600,103.600 167.200,103.600 166.400 C 103.600 165.600,103.400 165.200,103.000 165.200 C 102.670 165.200,102.400 165.020,102.400 164.800 C 102.400 164.580,102.130 164.400,101.800 164.400 C 101.470 164.400,101.200 164.130,101.200 163.800 C 101.200 163.470,101.020 163.200,100.800 163.200 C 100.580 163.200,100.400 162.930,100.400 162.600 C 100.400 162.270,100.130 162.000,99.800 162.000 C 99.470 162.000,99.200 161.730,99.200 161.400 C 99.200 160.594,98.039 160.633,97.726 161.450 M140.000 172.576 C 140.000 175.463,140.168 177.657,140.400 177.800 C 140.650 177.955,140.800 181.996,140.800 188.600 C 140.800 195.204,140.650 199.245,140.400 199.400 C 140.171 199.542,140.000 201.608,140.000 204.236 C 140.000 207.946,139.885 208.869,139.400 209.055 C 138.988 209.213,138.800 209.857,138.800 211.111 C 138.800 212.235,138.550 213.213,138.151 213.655 C 137.171 214.737,136.820 221.600,137.745 221.600 C 138.177 221.600,138.400 221.940,138.400 222.600 C 138.400 223.533,138.533 223.600,140.400 223.600 C 142.267 223.600,142.400 223.533,142.400 222.600 C 142.400 221.978,142.627 221.600,143.000 221.600 C 143.400 221.600,143.600 221.200,143.600 220.400 C 143.600 219.600,143.800 219.200,144.200 219.200 C 144.653 219.200,144.800 218.711,144.800 217.200 C 144.800 216.100,144.980 215.200,145.200 215.200 C 145.445 215.200,145.600 213.267,145.600 210.200 C 145.600 206.022,145.699 205.200,146.200 205.200 C 146.719 205.200,146.800 203.689,146.800 194.000 C 146.800 184.311,146.719 182.800,146.200 182.800 C 145.695 182.800,145.600 181.911,145.600 177.200 C 145.600 173.733,145.448 171.600,145.200 171.600 C 144.980 171.600,144.800 170.880,144.800 170.000 C 144.800 168.844,144.633 168.400,144.200 168.400 C 143.870 168.400,143.600 168.220,143.600 168.000 C 143.600 167.780,142.790 167.600,141.800 167.600 L 140.000 167.600 140.000 172.576 M250.400 185.557 C 250.400 201.150,250.321 203.545,249.800 203.745 C 249.315 203.931,249.200 204.854,249.200 208.564 C 249.200 211.192,249.029 213.258,248.800 213.400 C 248.580 213.536,248.400 214.258,248.400 215.004 C 248.400 215.821,248.150 216.500,247.771 216.712 C 247.016 217.135,246.464 220.400,247.147 220.400 C 247.396 220.400,247.600 220.810,247.600 221.311 C 247.600 222.696,248.943 223.600,251.000 223.600 C 253.356 223.600,254.400 222.713,254.400 220.711 C 254.400 219.880,254.580 219.200,254.800 219.200 C 255.044 219.200,255.200 217.333,255.200 214.400 C 255.200 210.400,255.300 209.600,255.800 209.600 C 256.325 209.600,256.400 207.289,256.400 191.200 C 256.400 175.111,256.325 172.800,255.800 172.800 C 255.427 172.800,255.200 172.422,255.200 171.800 C 255.200 171.250,255.032 170.800,254.827 170.800 C 254.621 170.800,254.396 170.305,254.327 169.700 C 254.227 168.836,253.964 168.573,253.100 168.473 C 252.495 168.404,252.000 168.179,252.000 167.973 C 252.000 167.768,251.640 167.600,251.200 167.600 C 250.412 167.600,250.400 167.867,250.400 185.557 M71.348 168.591 C 71.111 169.208,73.195 171.600,73.969 171.600 C 74.206 171.600,74.400 171.870,74.400 172.200 C 74.400 172.530,74.670 172.800,75.000 172.800 C 75.330 172.800,75.600 173.070,75.600 173.400 C 75.600 173.773,75.978 174.000,76.600 174.000 C 77.150 174.000,77.600 174.180,77.600 174.400 C 77.600 174.620,77.870 174.800,78.200 174.800 C 78.530 174.800,78.800 175.070,78.800 175.400 C 78.800 175.733,79.156 176.000,79.600 176.000 C 80.178 176.000,80.400 175.733,80.400 175.040 C 80.400 173.907,77.864 171.200,76.803 171.200 C 76.408 171.200,75.982 170.930,75.855 170.600 C 75.729 170.270,75.291 170.000,74.882 170.000 C 74.474 170.000,73.717 169.550,73.200 169.000 C 72.123 167.853,71.670 167.753,71.348 168.591 M195.467 171.867 C 194.881 172.452,195.176 178.705,195.800 178.945 C 196.300 179.136,196.400 180.273,196.400 185.738 C 196.400 191.085,196.289 192.394,195.800 192.800 C 195.314 193.203,195.200 194.471,195.200 199.462 C 195.200 204.571,195.097 205.664,194.600 205.855 C 194.115 206.042,194.000 206.967,194.000 210.699 C 194.000 214.145,193.860 215.424,193.447 215.756 C 192.580 216.452,192.153 226.000,192.989 226.000 C 193.463 226.000,193.600 226.493,193.600 228.200 C 193.600 229.889,193.739 230.400,194.200 230.400 C 194.530 230.400,194.800 230.580,194.800 230.800 C 194.800 231.020,195.520 231.200,196.400 231.200 L 198.000 231.200 198.000 229.600 C 198.000 228.720,198.180 228.000,198.400 228.000 C 198.633 228.000,198.800 226.667,198.800 224.800 C 198.800 222.222,198.917 221.600,199.400 221.600 C 199.900 221.600,200.000 220.800,200.000 216.800 C 200.000 212.800,200.100 212.000,200.600 212.000 C 201.109 212.000,201.200 211.000,201.200 205.400 C 201.200 201.267,201.349 198.800,201.600 198.800 C 201.853 198.800,202.000 196.000,202.000 191.200 C 202.000 186.400,201.853 183.600,201.600 183.600 C 201.361 183.600,201.200 182.067,201.200 179.800 C 201.200 176.689,201.091 176.000,200.600 176.000 C 200.167 176.000,200.000 175.556,200.000 174.400 C 200.000 173.244,199.833 172.800,199.400 172.800 C 199.070 172.800,198.800 172.530,198.800 172.200 C 198.800 171.581,196.029 171.304,195.467 171.867 M116.268 311.066 C 115.719 311.615,115.985 315.890,116.600 316.400 C 117.102 316.817,117.200 318.422,117.200 326.225 C 117.200 332.012,117.352 335.647,117.600 335.800 C 117.841 335.949,118.000 338.685,118.000 342.667 C 118.000 349.730,118.419 351.172,120.476 351.193 C 120.848 351.197,121.264 351.380,121.400 351.600 C 121.536 351.820,122.177 352.000,122.824 352.000 L 124.000 352.000 124.000 346.400 C 124.000 342.933,123.848 340.800,123.600 340.800 C 123.344 340.800,123.200 337.267,123.200 331.000 C 123.200 322.556,123.117 321.200,122.600 321.200 C 122.139 321.200,122.000 320.689,122.000 319.001 L 122.000 316.802 192.100 316.701 L 262.200 316.600 262.200 313.800 L 262.200 311.000 189.368 310.899 C 149.310 310.843,116.415 310.918,116.268 311.066 " stroke="none" fill="#040404" fill-rule="evenodd"></path></g></svg>