<?xml version="1.0" standalone="no"?>
<!DOCTYPE svg PUBLIC "-//W3C//DTD SVG 20010904//EN"
 "http://www.w3.org/TR/2001/REC-SVG-20010904/DTD/svg10.dtd">
<svg version="1.0" xmlns="http://www.w3.org/2000/svg"
 width="295.000000pt" height="299.000000pt" viewBox="0 0 295.000000 299.000000"
 preserveAspectRatio="xMidYMid meet">

<g transform="translate(0.000000,299.000000) scale(0.100000,-0.100000)"
fill="#000000" stroke="none">
<path d="M1330 2836 c-79 -17 -139 -50 -243 -134 -51 -41 -103 -79 -117 -85
-14 -6 -95 -13 -180 -17 -148 -6 -158 -7 -228 -40 -86 -39 -151 -104 -190
-188 -34 -75 -42 -202 -17 -287 38 -132 126 -256 222 -312 49 -28 47 -23 72
-173 40 -235 69 -592 77 -945 5 -175 11 -270 19 -292 26 -62 54 -70 357 -104
231 -25 452 -22 727 10 272 32 281 41 281 271 1 346 51 931 100 1157 10 46 16
55 56 78 95 56 181 177 219 309 25 87 17 212 -19 292 -47 104 -152 187 -269
214 -27 5 -109 10 -185 9 l-136 -1 -53 57 c-88 92 -215 161 -337 184 -71 13
-85 13 -156 -3z m213 -162 c98 -34 193 -124 247 -234 37 -74 31 -74 148 -17
124 61 177 66 256 26 57 -28 140 -114 166 -171 60 -132 -19 -295 -190 -394
-43 -25 -81 -51 -84 -60 -9 -23 -43 -298 -71 -574 -24 -238 -42 -341 -63 -362
-20 -20 -178 -30 -537 -31 -320 -2 -380 0 -444 15 -41 10 -79 22 -84 27 -15
15 -44 211 -72 481 -44 433 -50 452 -150 507 -132 72 -190 162 -190 298 0 70
4 87 30 134 54 97 141 151 246 151 68 0 125 -24 210 -86 l48 -35 24 43 c13 24
36 64 50 89 15 26 52 70 84 99 116 107 247 139 376 94z m415 -2084 c-2 -90 -7
-143 -15 -151 -22 -22 -107 -29 -447 -36 -244 -4 -375 -2 -468 7 -70 7 -130
15 -132 19 -2 3 -7 72 -11 154 l-8 147 543 0 542 0 -4 -140z"/>
<path d="M974 1796 c-7 -30 25 -358 37 -371 29 -30 54 107 46 260 -6 122 -10
135 -48 135 -22 0 -30 -6 -35 -24z"/>
<path d="M1787 1799 c-3 -12 1 -76 9 -143 7 -66 14 -140 14 -163 0 -50 8 -73
25 -73 20 0 26 36 32 185 6 173 -1 209 -44 213 -24 2 -32 -1 -36 -19z"/>
<path d="M1409 1768 c-24 -44 -5 -408 21 -408 12 0 35 195 35 295 -1 116 -26
168 -56 113z"/>
</g>
</svg>
